<?xml version="1.0" encoding="utf-8"?>
<!-- Generator: Adobe Illustrator 28.2.0, SVG Export Plug-In . SVG Version: 6.00 Build 0)  -->
<svg version="1.1" id="Layer_1" xmlns="http://www.w3.org/2000/svg" xmlns:xlink="http://www.w3.org/1999/xlink" x="0px" y="0px"
	 viewBox="0 0 447.54 137.76" style="enable-background:new 0 0 447.54 137.76;" xml:space="preserve">
<style type="text/css">
	.st0{fill:url(#SVGID_1_);}
	.st1{fill:url(#SVGID_00000124854604216317286890000005105583979616408475_);}
	.st2{fill:url(#SVGID_00000008113528263523673760000018184235918336745892_);}
	.st3{fill:url(#SVGID_00000057871038008014761730000016701107908787303813_);}
	.st4{fill:#FFFFFF;}
</style>
<g>
	<g>
		<g>
			<radialGradient id="SVGID_1_" cx="72.8378" cy="27.0155" r="41.2343" gradientUnits="userSpaceOnUse">
				<stop  offset="0" style="stop-color:#FFC113"/>
				<stop  offset="1" style="stop-color:#F48220"/>
			</radialGradient>
			<path class="st0" d="M73.03,25.87C57.71,25.9,47.4,38.53,47.69,51.25c-0.25,11.72,8.38,23.07,21.26,25.09
				c0.25,0.04,0.54,0.08,0.8,0.1c0.12,0.03,0.24,0.04,0.36,0.05c0.2,0.03,0.4,0.05,0.6,0.06l0.27,0.03
				c0.52,0.05,1.05,0.07,1.59,0.07c0.15,0.01,0.3,0.01,0.46,0.01c0.23,0,0.46,0,0.69-0.01c0.14,0,0.28,0,0.42-0.01
				c0.25-0.02,0.51-0.03,0.77-0.05c0.05-0.01,0.1-0.01,0.14-0.01c0.33-0.02,0.67-0.05,0.99-0.08c12.88-1.48,22.33-12.37,22.41-25.07
				C98.5,37.67,87.63,25.85,73.03,25.87z M57.57,32.91c0.01,0.12,0.02,0.22,0.02,0.34c-0.25,0.04-0.51,0.06-0.77,0.1
				c-0.02-0.07-0.04-0.14-0.05-0.2C57.04,33.07,57.3,33,57.57,32.91z M78.16,75.05c-1.08,0.22-2.14,0.37-3.18,0.45
				c-0.06,0.01-0.12,0.02-0.19,0.02c-0.2,0.03-0.4,0.03-0.6,0.04c-0.03,0.01-0.07,0.01-0.11,0.01c-0.45,0.02-0.89,0.03-1.33,0.03
				c-0.55,0-1.1-0.02-1.64-0.05h-0.11c-0.11-0.01-0.2-0.01-0.29-0.02c-0.1-0.02-0.17-0.02-0.25-0.03c-0.21-0.02-0.42-0.04-0.62-0.07
				c-4.77-0.58-9.16-2.61-13.15-6.1c-0.06-0.06-0.1-0.16-0.14-0.24l-0.04,0.04c-0.1-0.11-0.19-0.21-0.28-0.31
				c-0.09-0.09-0.19-0.2-0.29-0.29c-0.09-0.1-0.2-0.21-0.3-0.3c-0.09-0.1-0.2-0.2-0.29-0.3c-0.01-0.02-0.01-0.05-0.02-0.07
				c-2.03-1.86-3.43-4.16-4.54-6.62c-1.69-3.74-2.38-7.68-2.06-11.91c0.34,0.28,0.59,0.56,0.91,0.72c0.28,0.14,0.63,0.16,1.08,0.27
				c-0.13,1.06-0.21,2.23-0.41,3.37c-0.19,1.02,0.07,1.9,0.82,2.51c1.65,1.33,1.97,3.18,2.14,5.08c0.08,1.02,0.08,2.03,0.62,2.95
				c0.1,0.16,0.17,0.37,0.17,0.56c-0.02,1.03,0.41,1.86,1.09,2.62c0.1,0.12,0.13,0.29,0.19,0.46c0.01,0.01,0.03,0.04,0.05,0.05
				c0.09,0.11,0.2,0.2,0.29,0.3c0.11,0.1,0.21,0.2,0.31,0.3c0.1,0.1,0.2,0.19,0.3,0.29c0.09,0.1,0.19,0.2,0.28,0.29
				c0.29-0.22,0.57-0.45,0.96-0.74c-0.44-0.46-0.81-0.84-1.21-1.28c-0.06-0.8-0.12-1.66-0.19-2.61c1.17-0.54,1.27-1.85,1.7-2.9
				c0.39-0.91,0.85-1.62,1.68-2.11c0.78-0.46,1.26-1.02,0.98-2.03c-0.15-0.55,0.17-0.99,0.55-1.42c0.91-1.06,0.84-1.51-0.22-2.34
				c-0.3-0.24-0.56-0.52-0.86-0.82c-0.31,0.12-0.63,0.23-0.96,0.35c-0.11-0.28-0.2-0.54-0.31-0.85h-1.11
				c-0.12-0.13-0.21-0.23-0.29-0.34c-0.68-0.95-1.33-1.89-2.02-2.81c-0.13-0.16-0.43-0.21-0.65-0.27c-0.57-0.14-1.14-0.25-1.87-0.42
				c-0.39,0.32-0.86,0.72-1.33,1.11c-0.51-0.1-1.08-0.21-1.79-0.35c-0.03-0.41-0.07-0.92-0.1-1.48c-0.16-0.11-0.35-0.22-0.58-0.38
				c0.27-1.13,0.54-2.25,0.85-3.55c0.47,0.38,0.78,0.63,1.13,0.91c0.08-0.08,0.22-0.15,0.29-0.25c0.08-0.12,0.13-0.27,0.14-0.41
				c0.23-2.52,2.3-3.46,4.02-4.68c0.75-0.52,1.48-0.12,2.23,0.5c0.08-0.47,0.13-0.76,0.2-1.12c-0.65-0.21-1.24-0.4-1.78-0.57
				c0.67-0.39,0.68-0.41,1.53-0.08c0.55,0.21,1.08,0.5,1.73-0.12c-0.34-0.78-0.7-1.61-1.01-2.33c-0.58-0.24-1.1-0.46-1.6-0.65
				c-0.42-0.16-0.84-0.34-1.27-0.5l-0.01,0.01c-0.11,0.1-0.2,0.2-0.31,0.29c-0.2,0.29-0.38,0.58-0.58,0.87
				c-0.09,0.11-0.19,0.2-0.29,0.3c-0.03,0.07-0.07,0.14-0.1,0.2c0.03-0.07,0.06-0.14,0.09-0.22c0.11-0.1,0.2-0.19,0.3-0.28
				c0.19-0.3,0.38-0.59,0.56-0.9c0.1-0.11,0.2-0.2,0.29-0.3c0.01,0.01,0.04,0.01,0.05,0.02c0.25-0.29,0.5-0.56,0.78-0.87
				c0.5,0.22,0.93,0.42,1.4,0.64c0.65-0.36,1.31-0.72,2.07-1.14c-0.46-0.48-0.84-0.89-1.29-1.37c0.63-0.41,1.19-0.78,1.69-1.1
				c1.71,0.72,1.72,0.77,0.69,3.25c0.31,0.38,0.67,0.82,1.11,1.35c0.74-0.46,1.42-0.83,2.05-1.26c1-0.69,1.99-1.38,3.24-1.59
				c0.32-0.06,0.67-0.23,0.89-0.47c0.55-0.61,1.02-1.27,1.6-2.02c-1.24-0.28-2.42-0.12-3.6-0.14c-1.2-0.04-2.4-0.27-3.53-0.4
				c6.76-3.82,17.47-3.37,24.33,1.87c-0.48,0.55-0.48,0.55-1.37,0.71c-0.01,0.14-0.03,0.28-0.05,0.43
				c-0.15,0.02-0.29,0.03-0.45,0.03c-0.96-0.03-1.9,0-2.84,0.38c-0.87,0.34-1.89,0.24-2.76,0.75c-0.15,0.1-0.54-0.19-0.86-0.31
				c0.3-0.61,1.13,0.19,1.15-0.78c-0.12-0.12-0.29-0.36-0.52-0.47c-1-0.47-2.08-0.57-3.15-0.42c-0.47,0.07-1.05,0.22-1.31,0.55
				c-0.51,0.64-1.2,0.95-1.87,1.35c-0.19,0.12-0.3,0.32-0.56,0.62c0.61,0.22,1.09,0.41,1.62,0.62c0.15,0.33,0.32,0.72,0.57,1.27
				c0.49-0.44,0.91-0.8,1.34-1.19v-1.28c0.5,0.62,0.84,1.03,1.27,1.57c-0.54,0.33-0.99,0.7-1.51,0.91c-0.99,0.4-1.09,0.34-1.83-0.52
				c-0.25-0.31-0.25-0.31-1.01-0.21c0.04,0.19,0.07,0.36,0.12,0.54c0.05,0.17,0.11,0.35,0.16,0.56c-0.85,0.43-1.65,0.84-2.46,1.24
				c0.09,0.27,0.17,0.49,0.29,0.78c-0.36,0.08-0.69,0.16-1,0.21c-1.24,0.2-1.47,0.62-1,1.79c0.04,0.13,0.16,0.23,0.3,0.43
				c0.42,0.04,0.9,0.09,1.4,0.14c0.65-1.05,0.8-2.61,2.58-2.32c0.92,0.14,1.64,0.69,2.13,1.8c0.25-0.23,0.49-0.46,0.77-0.71
				c-0.46-0.37-0.84-0.7-1.3-1.09c1.14-0.16,1.52,0.17,2.05,1.79c0.54-0.21,1.06-0.42,1.7-0.68c0.07,0.59,0.13,1,0.19,1.57
				c0.67-0.09,1.27-0.16,1.98-0.25c0.02,0.22,0.16,0.52,0.07,0.72c-0.23,0.5-0.66,0.83-1.26,0.85c-1,0.06-1.94-0.14-2.75-0.69
				c-1.07,0.59-1.62,0.37-3.2-1.24c-1.16,0.17-2.35,0.32-3.53,0.55c-0.31,0.06-0.62,0.28-0.87,0.49c-1.88,1.52-2.77,3.64-3.38,5.85
				c-0.43,1.61,0.58,2.75,2.25,3.1c0.99,0.2,1.94,0.01,2.9-0.05c2.1-0.14,3.1,0.8,3.3,2.94c0.14,1.54,0.41,3.08,0.67,4.61
				c0.07,0.43,0.29,0.84,0.49,1.22c0.59,1.12,1.21,2.23,1.84,3.32c0.29,0.51,0.61,1.02,1.5,1c0.14-0.23,0.47-0.54,0.5-0.86
				c0.21-2.18,1.36-3.81,2.86-5.28c0.16-0.17,0.33-0.36,0.52-0.58c-0.06-0.27-0.08-0.57-0.21-0.83c-0.35-0.74-0.2-1.46,0.17-2.1
				c0.78-1.4,1.62-2.76,2.49-4.12c0.25-0.39,0.5-0.72,0.23-1.3c-0.77,0.12-1.56,0.23-2.47,0.37c-1.05-1.43-1.45-3.17-2.08-4.81
				c-0.01,0-0.03-0.02-0.04-0.03c-0.04-0.05-0.07-0.09-0.08-0.11c0.01,0,0.06,0.05,0.11,0.08c0.01,0.01,0.01,0.03,0.02,0.05
				c1.11,0.62,1.7,1.64,2.24,2.73c0.76,1.52,1.79,1.71,2.94,0.51c0.44-0.45,0.8-0.97,1.24-1.52c-0.27-0.4-0.5-0.75-0.76-1.11
				c-0.46-0.03-0.89-0.06-1.37-0.09c-0.28-0.54-0.98-0.78-1.03-1.72c0.43,0.2,0.84,0.26,1.06,0.49c0.71,0.77,1.64,1,2.59,1.26
				c0.75,0.2,1.49,0.42,2.3,0.65c0.22,0.76,0.59,1.51,0.6,2.25c0.03,1.31,0.72,2.03,1.79,2.56c0.46-3.25,0.64-3.61,2.26-4.26
				c0.25,0.37,0.47,0.79,0.77,1.14c0.28,0.33,0.64,0.59,1.03,0.93c-0.36,1.16-0.04,2.13,0.75,3.05c0.27,0.31,0.3,0.91,0.29,1.37
				c-0.14,4.76-1.69,9.06-4.46,12.91C89.17,70.48,84.28,73.81,78.16,75.05z"/>
			
				<radialGradient id="SVGID_00000103975164739857646270000016332722495196533417_" cx="72.8378" cy="27.0155" r="41.2343" gradientUnits="userSpaceOnUse">
				<stop  offset="0" style="stop-color:#FFC113"/>
				<stop  offset="1" style="stop-color:#F48220"/>
			</radialGradient>
			<path style="fill:url(#SVGID_00000103975164739857646270000016332722495196533417_);" d="M83.11,60.55
				c-0.18-0.12-0.35-0.2-0.48-0.32c-0.14-0.13-0.24-0.29-0.38-0.47c0.26-1.34,1.19-2.28,1.94-3.52c0.2,0.33,0.45,0.56,0.43,0.76
				C84.5,58.31,84.06,59.51,83.11,60.55z"/>
			
				<radialGradient id="SVGID_00000062162770525330217980000002206896325827352709_" cx="72.8378" cy="27.0155" r="41.2343" gradientUnits="userSpaceOnUse">
				<stop  offset="0" style="stop-color:#FFC113"/>
				<stop  offset="1" style="stop-color:#F48220"/>
			</radialGradient>
			<path style="fill:url(#SVGID_00000062162770525330217980000002206896325827352709_);" d="M52.08,46.6
				c-0.79-0.14-1.58-0.29-2.38-0.43C50.44,45.4,51.14,45.45,52.08,46.6z"/>
			
				<radialGradient id="SVGID_00000001665866873778691270000000369873310550147968_" cx="72.8378" cy="27.0155" r="41.2343" gradientUnits="userSpaceOnUse">
				<stop  offset="0" style="stop-color:#FFC113"/>
				<stop  offset="1" style="stop-color:#F48220"/>
			</radialGradient>
			<path style="fill:url(#SVGID_00000001665866873778691270000000369873310550147968_);" d="M52.45,47.04
				c0.25-0.63,0.65-0.59,1.16-0.37C53.34,47.28,52.95,47.28,52.45,47.04z"/>
		</g>
		<path class="st4" d="M29.97,61.75c0.14,7.74,2.64,14.36,6.53,19.9c0.66,0.94,1.36,1.87,2.11,2.74c0.46,0.56,0.94,1.11,1.44,1.64
			c0.13,0.14,0.27,0.28,0.4,0.42c1.89,1.98,3.97,3.79,6.16,5.4c0.14,0.11,0.29,0.22,0.43,0.32c0.14,0.1,0.28,0.19,0.41,0.29
			c0.17,0.12,0.36,0.24,0.54,0.37c2.36,1.65,4.85,3.1,7.38,4.33c0.52,0.26,1.04,0.5,1.56,0.74c10.01,4.53,19.56,5.21,19.56,5.21
			c3.55,0,6.63-0.2,9.51-0.56c0.67-0.08,4.52-0.57,8.5-1.57c8.13-2.05,14.99-5.77,19.09-8.29c-1.63,2.14-3.88,4.9-6.77,7.91
			c-3.14,3.26-9.55,9.41-19,14.98c-8.33,4.9-23.05,13.57-42.16,12.1c-7.35-0.57-13.22-2.48-16.99-3.98
			c4.27,0.85,9.99,1.51,16.69,0.96c4.47-0.36,8.37-1.16,11.55-2.06c-4.2,0.5-12.64,0.91-22.14-2.89
			c-12.28-4.93-18.81-13.91-21.09-17.41c8.35,7.91,16.45,11.43,21.41,13.11c26.49,8.88,51.41-5.45,54.45-7.25
			c0.51-0.3,1.12-0.67,1.82-1.13c-6.68,3.23-14.19,5.04-22.11,5.04c-28.2,0-51.06-22.86-51.06-51.06
			c0-29.98,26.81-50.07,51.06-51.06c17.45-0.71,35.56,8.39,44.18,22.15c5.63,8.98,7.43,20.22,7.74,22.32
			c1,6.7,0.76,12.42,0.33,16.45c-0.54-5.44-2.92-22.74-17.18-36.72c-4.27-4.18-15.59-15.29-31.5-15.19
			C52.41,19.08,29.54,37.6,29.97,61.75z"/>
		<path class="st4" d="M115.42,84.99c-2.62,2.68-5.58,5-8.78,6.87c-0.03,0.02-0.05,0.03-0.08,0.05c-0.33,0.2-0.66,0.38-1,0.56
			c-3.98,2.2-8.27,3.72-12.77,4.57l-37.41,0.13c-2.53-1.23-5.02-2.68-7.38-4.33c-0.18-0.12-0.36-0.24-0.54-0.37
			c-0.14-0.1-0.28-0.19-0.41-0.29c-0.15-0.11-0.29-0.21-0.43-0.32c-2.2-1.62-4.27-3.43-6.16-5.4c-0.13-0.14-0.27-0.28-0.4-0.42
			c0.04-1.04-0.17-2.12,0.25-3.14c0.13-0.3-0.17-0.57-0.1-0.91c0.01-0.05,0.02-0.1,0.05-0.15c0.14-0.28,0.04-0.68,0.04-1.03V74.7
			c0.35-0.51,0.67-0.99,0.99-1.47c0.04,0.14,0.03,0.44,0.17,0.57c0.66,0.64,0.71,1.42,0.7,2.26c-0.03,1.66,0,3.32,0,4.98
			c0,0.52,0.04,1.05-0.02,1.57c-0.05,0.45,0.17,0.87,0.08,1.32c-0.05,0.22-0.06,0.42-0.04,0.64c0.01,0.27,0.08,0.57,0.2,0.85
			c0.15,0.43,0.03,0.95,0.03,1.57c0.33-0.08,0.6-0.09,0.84-0.2c0.22-0.09,0.43-0.2,0.65-0.3c0.28-0.14,0.55-0.27,0.81-0.4
			c0.28-0.78-0.73-0.94-0.59-1.48c-0.36-0.24-0.83,0.16-0.85-0.38c0.73-0.65,1.88-0.52,2.58-1.38c-0.35-0.66-0.87-1.09-1.89-1.28
			c0.93-0.55,1.73-0.61,2.64-1.12c0.15-0.27,0.46-0.78,0.82-1.41c0.35,0.52,0.67,1.01,1.01,1.51c0.68,0.27,1.38,0.54,2.08,0.8
			c0.1,0.56-0.34,0.35-0.59,0.42c-0.23,0.35-0.47,0.7-0.72,1.07c0.59,0.83,1.7,0.76,2.38,1.39c-0.72,0.45-1.39,0.87-1.62,1.81
			c0.89,0.39,1.74,0.75,2.58,1.12c0.06-0.2,0.11-0.45,0.22-0.68c0.04-0.11,0.19-0.17,0.28-0.26c0.29,0.84,0.57,1.68,0.86,2.57h0.41
			c0.12-0.3,0.39-0.62,0.35-0.91c-0.1-0.92,0.74-1.3,1.05-1.99c0.08-0.19,0.4-0.33,0.64-0.37c2.14-0.47,3.94-1.67,5.91-2.54
			c0.19-0.08,0.39-0.13,0.59-0.19c-0.08,0.17-0.17,0.35-0.26,0.52c-0.21,0.02-0.48-0.09-0.52,0.26c-0.15,0.03-0.31,0.05-0.46,0.09
			c0,0.05,0.02,0.12,0.02,0.17h0.45c-0.46,0.26-0.89,0.59-1.38,0.76c-1.43,0.54-2.87,0.99-4.33,1.5c0.65,0.76,0.82,1.72,1.08,2.67
			h0.87c0.29-0.59-0.26-1.39,0.57-1.79h3.02c0.61-0.49,1.21-1.06,2.01-1.3c0,0,0,0.01,0.01,0.01c0,0,0,0,0-0.01H63.9
			c0.12-0.4,0.38-0.56,0.78-0.52l0.27,0.26c-0.06,0.14-0.13,0.29-0.21,0.45h2c0.02-0.32,0.04-0.57,0.06-0.83
			c0.92-0.34,1.13-1.13,1.29-1.98c-0.38,0.34-0.75,0.7-1.16,1.02c-0.2,0.14-0.45,0.2-0.68,0.29V84.1c0.09-0.08,0.17-0.17,0.27-0.26
			c0.08-0.09,0.17-0.17,0.26-0.27c0.08-0.08,0.17-0.17,0.26-0.26c0.09-0.09,0.17-0.17,0.27-0.27c0.08-0.08,0.17-0.17,0.26-0.26
			c0.09-0.09,0.17-0.17,0.27-0.27c0.08-0.08,0.17-0.17,0.26-0.26h0.27c0.03,0.06,0.05,0.13,0.08,0.2c0.05-0.06,0.12-0.13,0.17-0.2
			l1.31-1.31c0.71-0.31,1.41-0.62,1.98-0.86c0.14-0.81,0.17-1.5,0.42-2.1c0.11-0.26,0.15-0.51,0.17-0.76
			c0.03-0.15,0.04-0.3,0.05-0.47c0-0.04,0-0.07,0.01-0.12c0-0.03,0.01-0.07,0.01-0.1c0.01-0.07,0.02-0.14,0.03-0.2
			c0.01-0.07,0.01-0.12,0.01-0.13c0.01-0.06,0.05-0.24,0.16-0.62c0.07-0.24,0.16-0.56,0.3-0.97c-0.06-0.07-0.37-0.38-0.38-0.86
			c-0.01-0.67,0.56-1.04,0.6-1.07c0.15-0.62,0.3-1.22,0.46-1.84c0.06,0.17,0.11,0.35,0.16,0.54c0.13,0.47,0.24,0.91,0.32,1.34
			c0.1,0.07,0.38,0.31,0.48,0.71c0.16,0.65-0.25,1.16-0.3,1.21c0.17,0.33,0.29,0.62,0.38,0.86c0.2,0.52,0.24,0.84,0.23,1.06v0.01
			c0,0.08-0.03,0.36,0.04,0.73c0.01,0.05,0.04,0.24,0.12,0.49c0.07,0.23,0.2,0.55,0.43,0.9c-0.09,0.64-0.13,1.03-0.17,1.41
			c0.86,0.32,1.61,0.59,2.36,0.86c0.08,0.08,0.17,0.17,0.26,0.26c0.08,0.09,0.17,0.17,0.26,0.27c0.06,0.06,0.11,0.13,0.17,0.2
			c0.02-0.07,0.06-0.13,0.09-0.2h0.26L79.36,82v0.52H79.1c0.08,0.09,0.17,0.17,0.26,0.27c0.29,0.69,0.57,1.37,0.83,2.03
			c0.28,0.05,0.48,0.08,0.66,0.12c0.07,0.37,0.12,0.67,0.19,0.99c0.7-0.05,1.33,0.09,1.9-0.06c-0.27-0.28-0.48-0.49-0.71-0.72
			c0.07-0.03,0.14-0.07,0.21-0.09c-0.06-0.06-0.13-0.12-0.21-0.17c-0.09-0.08-0.17-0.17-0.26-0.26c0.01-0.09,0.01-0.17,0.01-0.27
			c0.57-0.03,0.82,0.36,1.04,0.79c0.62,0.34,1.38,0.55,1.78,1.05c0.51,0.62,1.05,0.78,1.76,0.78c0.81-0.01,1.63,0,2.52,0v1.78h1.22
			c-0.08-0.2-0.15-0.34-0.21-0.45c0.34-0.84,0.71-1.61,1.28-2.27c-0.38-0.13-0.73-0.3-1.09-0.36l1.6,0.17
			c0.04,0.06,0.21,0.3,0.34,0.5c1.07-0.57,2.09-1.11,3.28-1.73c-0.69-0.61-1.29-1.15-1.95-1.74c0.73-0.56,1.72-0.71,2.4-1.21
			c0.27-0.5,0.54-0.93,0.71-1.39c0.16-0.42,0.23-0.89,0.35-1.34c0.36,0.37,0.01,0.85,0.19,1.24c0.31,0.45,0.6,0.9,1.06,1.56
			c0.57,0.29,1.4,0.7,2.25,1.12c-0.62,0.56-1.22,1.1-1.94,1.76c0.61,0.32,1.07,0.57,1.59,0.83c0.84-0.41,1.67-0.82,2.52-1.24
			c-0.32-1.02-0.92-1.64-2.01-1.72c-0.24-0.01-0.46-0.28-0.75-0.48c1.2-0.4,2.26-0.73,3.32-1.09c0.4-0.13,0.45-0.32,0.4-1.31
			c-0.47-0.21-0.99-0.45-1.71-0.77c0.63-0.21,1.06-0.47,1.51-0.48c0.85-0.02,1.26-0.41,1.36-1.21c0.01-0.04,0.14-0.08,0.31-0.15
			c0.05,0.13,0.15,0.26,0.16,0.39c0.1,0.8,0.1,0.78,0.92,0.94c0.57,0.11,1.12,0.27,1.73,0.4c-0.07,0.14-0.1,0.33-0.17,0.35
			c-1.18,0.33-1.18,0.32-1.71,1.55c1.18,0.52,2.4,0.91,3.68,1.31v0.52c-0.89-0.05-1.62,0.33-2.29,0.95v0.9
			c0.91,0.51,1.79,1.08,2.83,1.35l0.01,0.01c0.14,0.46,0.51,0.17,0.79,0.26c0.13,0.42,0.41,0.27,0.68,0.17L115.42,84.99z"/>
		<path class="st4" d="M8.75,71.33c4.73,11.95,11.75,22.4,21.9,30.11c10.17,7.69,22.11,11.63,34.89,12.99
			c-3.19,0.89-6.54,1.26-9.89,1.28C31.37,115.96,9.34,95.85,8.75,71.33L8.75,71.33z"/>
		<g>
			<path class="st4" d="M122.33,88.27c0.17,0.15,0.34,0.3,0.51,0.46c0.47-0.18-0.25-0.82,0.4-0.97c0.09,0.13,0.2,0.28,0.34,0.47
				c0.07-0.15,0.16-0.27,0.18-0.4c0.03-0.17-0.01-0.34,0-0.51c0-0.04,0.09-0.08,0.16-0.13c0.15,0.11,0.31,0.23,0.46,0.35
				c0.33-0.27-0.26-0.73,0.34-0.92c0.1,0.09,0.25,0.21,0.41,0.35c0.05-0.08,0.13-0.17,0.12-0.22c-0.07-0.27-0.19-0.54,0.2-0.7
				c0.14,0.11,0.28,0.23,0.56,0.46c-0.07-0.53-0.26-0.95,0.26-1.29c-1.44-0.5-2.78-0.96-4.18-1.45c0.23-0.33,0.42-0.6,0.61-0.86
				c0.04-0.03,0.08-0.05,0.07-0.05c0,0-0.03,0.03-0.05,0.07c-0.41,0.19-0.83,0.38-1.28,0.59c-1.33-0.43-2.67-0.86-4.01-1.29
				c-2.13-0.69-4.27-1.38-6.4-2.06c-0.62-0.2-1.2-0.44-1.65-0.95c0.44-0.2,1.01-0.24,1.67-0.15c0.43,0.06,0.85,0.1,1.28,0.13
				c1.84,0.12,3.68,0.24,5.53,0.35c0.06,0,0.12,0,0.19,0.01c1.69,0.08,3.39,0.14,5.08,0.23c0.86,0.05,1.71,0.14,2.53,0.2
				c0.31-0.29,0.54-0.53,0.81-0.74c0.72-0.57,1.52-0.83,2.4-0.4c0.24,0.12,0.46,0.31,0.63,0.52c0.68,0.85,0.42,1.64-0.66,2.04
				c-1.15-0.48-1.33-0.94-0.81-2.1c-0.41-0.15-0.67,0.1-0.8,0.39c-0.16,0.35-0.2,0.75-0.27,1.03c0.42,0.89,0.88,1.47,1.85,1.48
				c0.9,0,1.31-0.56,1.59-1.26c0.43,0,0.81,0,1.25,0c-0.71,1.47-1.6,2.73-2.58,3.91c-0.67,0.8-1.38,1.56-2.08,2.34
				c-0.06,0.06-0.12,0.13-0.18,0.19c-0.12,0.06-0.25,0.12-0.37,0.18c-0.03,0.03-0.06,0.06-0.07,0.06c0-0.01,0.03-0.04,0.05-0.08
				c0.12-0.06,0.25-0.12,0.37-0.18c0.06-0.06,0.13-0.12,0.19-0.18c0.81-0.27,1.43-0.84,2.03-1.4c2.09-1.97,4.12-3.99,6.19-5.98
				c1.69-1.62,3.48-3.14,5.54-4.28c1.19-0.66,2.44-1.16,3.74-1.55c-0.33-0.63-0.67-0.82-1.4-0.62c-0.74,0.2-1.46,0.49-2.17,0.76
				c-0.34,0.13-0.66,0.31-1.05,0.49c-0.05-0.19-0.08-0.33-0.13-0.53c0.68-0.32,1.33-0.63,1.99-0.95c-1.01-0.07-1.94,0.18-2.83,0.6
				c-1.12,0.53-2.08,1.31-3.03,2.1c-1.59,1.32-3.17,2.65-4.76,3.97c-0.18,0.15-0.4,0.26-0.59,0.39c-0.32-0.31-0.21-0.54,0.02-0.74
				c0.56-0.49,1.11-0.97,1.68-1.45c1.3-1.08,2.61-2.16,3.92-3.24c1.35-1.11,2.81-1.98,4.56-2.31c1.08-0.21,2.15-0.12,3.2,0.15
				c0.31,0.08,0.59,0.32,0.85,0.53c0.4,0.33,0.48,0.75,0.33,1.25c-0.32,1.04-0.96,1.88-1.71,2.6c-1.13,1.09-2.33,2.11-3.53,3.12
				c-1.8,1.5-3.67,2.91-5.44,4.44c-3.73,3.23-7.92,5.62-12.63,7.08c-1.46,0.45-2.97,0.76-4.47,1.08c-0.41,0.09-0.85,0.01-1.43,0.01
				c1.56-1.26,3.03-2.43,4.47-3.63c1.47-1.22,2.91-2.48,4.4-3.77c0.16,0.03,0.36,0.06,0.59,0.1c-0.04,0.14-0.04,0.25-0.1,0.29
				c-0.69,0.61-1.4,1.21-2.09,1.82c-0.27,0.24-0.52,0.51-0.77,0.76c-0.06,0.06-0.13,0.13-0.19,0.19c-0.4,0.22-0.45,0.5-0.14,0.88
				c0.44-0.27,0.03-0.62,0.13-0.89C122.21,88.39,122.27,88.33,122.33,88.27z M128.27,83.47c-0.72,0.13-1.43,0.25-2.15,0.38
				c0.78,0.17,1.51,0.12,2.14-0.39c0.09-0.02,0.18-0.04,0.28-0.06c-0.02-0.04-0.04-0.07-0.06-0.11
				C128.41,83.35,128.34,83.41,128.27,83.47z"/>
			<path class="st4" d="M137.83,82.18c0.27,0.26,0.51,0.49,0.74,0.7c0.4-0.14,0.77-0.3,1.15-0.39c0.91-0.21,1.79,0.16,2.23,0.9
				c0.33,0.56,0.41,1.64-0.22,2.33c-0.9,0.98-2.01,1.5-3.31,1.63c-0.52,0.05-1.05,0.01-1.56,0.01c-0.98-0.55-1.93-1.09-3.01-1.7
				C135.23,84.46,136.52,83.33,137.83,82.18z M139.89,83.09c-0.67,0.22-0.74,0.69-0.67,1.21c0.07,0.54,0.55,1.12,1.02,1.18
				c0.44,0.06,0.94,0.17,1.17-0.43C139.75,84.78,139.83,84.16,139.89,83.09z"/>
			<path class="st4" d="M119.25,89.26c-0.51-0.03-0.91-0.05-1.4-0.08c-0.65-1.68-1.31-3.35-1.98-5.08c0.32-0.17,0.62-0.32,0.98-0.5
				c1.35,1.34,2.7,2.68,4.07,4.04C120.51,88.36,119.73,88.64,119.25,89.26z"/>
			<path class="st4" d="M110.72,90.08c0.6-0.36,0.99-0.6,1.43-0.86c2.03,0.18,4.1,0.37,6.36,0.57c-0.77,0.62-1.42,1.14-2.14,1.71
				C114.54,91.16,112.74,90.58,110.72,90.08z"/>
			<path class="st4" d="M141.49,86.53c0.77,1.11,1.48,2.14,2.23,3.21c-0.16,0.18-0.29,0.34-0.47,0.54c-1.82-0.8-3.64-1.59-5.45-2.38
				C139.1,87.68,140.36,87.45,141.49,86.53z"/>
			<path class="st4" d="M137.13,75.07c0.19-0.1,0.35-0.18,0.53-0.28c0.07,0.41,0.13,0.76,0.21,1.21c-0.16,0.14-0.35,0.31-0.58,0.51
				C137.04,75.98,137.17,75.53,137.13,75.07z"/>
			<path class="st4" d="M135.97,76.94c-0.31-0.47-0.31-0.47,0.09-0.91C136.36,76.39,136.33,76.67,135.97,76.94z"/>
			<path class="st4" d="M135.43,77.44c-0.11,0.03-0.24,0.08-0.37,0.12c-0.2-0.29-0.22-0.53,0.07-0.79
				C135.43,76.89,135.53,77.09,135.43,77.44z"/>
			<path class="st4" d="M134.49,77.39c0.08,0.18,0.16,0.34,0.25,0.53c-0.1,0.12-0.2,0.23-0.29,0.33c-0.09-0.04-0.17-0.05-0.19-0.09
				C134.11,77.86,134.1,77.59,134.49,77.39z"/>
			<path class="st4" d="M132.9,78.56c0.27,0.34,0.45,0.58-0.01,0.86C132.65,79.17,132.61,78.94,132.9,78.56z"/>
			<path class="st4" d="M133.67,77.94c0.1,0.24,0.17,0.34,0.17,0.44c0,0.14-0.06,0.28-0.11,0.5
				C133.37,78.61,133.35,78.38,133.67,77.94z"/>
			<path class="st4" d="M132.14,80.01c-0.25-0.33-0.25-0.55,0.09-0.77C132.42,79.5,132.58,79.73,132.14,80.01z"/>
			<path class="st4" d="M131.58,79.96c-0.02,0.11-0.05,0.23-0.07,0.34c-0.08-0.03-0.15-0.06-0.23-0.08c0.05-0.1,0.11-0.21,0.16-0.31
				C131.48,79.92,131.53,79.94,131.58,79.96z"/>
		</g>
	</g>
	<g>
		<path class="st4" d="M167.85,25.29v36.48c0,3.66-0.93,6.48-2.79,8.45c-1.86,1.97-4.53,2.96-8.01,2.96c-3.49,0-6.13-0.99-7.93-2.96
			c-1.79-1.97-2.69-4.79-2.69-8.45V25.29h-14.89v36.48c0,3.88,0.55,7.34,1.68,10.39l0.46-0.38c2.04-1.68,4.09-2.7,6.29-3.12
			c0.63-0.12,1.29-0.18,1.94-0.18c0.95,0,1.94,0.13,2.94,0.39c1.12,0.29,1.89,0.92,2.31,1.27c1.61,1.32,2.2,3.37,1.59,5.37
			c-0.47,1.55-1.36,2.93-2.72,4.24c-0.39,0.38-0.79,0.72-1.19,1.09c0.15,0.19,0.29,0.4,0.42,0.62c0.59,1.01,0.89,2.35,0.74,3.69
			c3.26,1.26,6.86,1.89,10.79,1.89c4.82,0,9.18-0.95,13.11-2.87c3.92-1.92,7.03-4.76,9.36-8.54c2.32-3.77,3.48-8.39,3.48-13.85
			V25.29H167.85z"/>
		<path class="st4" d="M232.98,25.29v37.88l-24.91-37.88h-14.89v61.13h14.89v-37.7l24.91,37.7h14.89V25.29H232.98z"/>
		<path class="st4" d="M258.66,25.29v61.13h14.89V25.29H258.66z"/>
		<path class="st4" d="M281.04,25.29v11.76h16.19v49.37h14.89V37.05h16.2V25.29H281.04z"/>
		<path class="st4" d="M373.25,37.05V25.29H335.8v61.13h37.44V74.66h-22.55V60.99h19.94V49.76h-19.94V37.05H373.25z"/>
		<path class="st4" d="M433.89,39.88c-2.64-4.61-6.37-8.2-11.18-10.75c-4.82-2.56-10.45-3.83-16.89-3.83h-22.9v61.13h22.9
			c6.39,0,12-1.28,16.85-3.83c4.85-2.55,8.59-6.15,11.23-10.8c2.65-4.64,3.96-9.95,3.96-15.93
			C437.85,49.82,436.54,44.49,433.89,39.88z M418,69c-3.13,3.14-7.52,4.7-13.15,4.7h-7.06V38h7.06c5.63,0,10.01,1.57,13.15,4.7
			c3.13,3.13,4.7,7.52,4.7,13.15C422.7,61.49,421.13,65.87,418,69z"/>
	</g>
	<g>
		<path class="st4" d="M139.66,101.35v1.51h-3.1v10.26h-1.91v-10.26h-3.12v-1.51H139.66z"/>
		<path class="st4" d="M152.67,113.12l-2.68-4.71h-1.46v4.71h-1.91v-11.77h4.02c0.89,0,1.65,0.16,2.27,0.47
			c0.62,0.32,1.08,0.74,1.39,1.27c0.31,0.53,0.46,1.12,0.46,1.78c0,0.77-0.22,1.46-0.66,2.09c-0.44,0.63-1.12,1.05-2.04,1.28
			l2.88,4.88H152.67z M148.53,106.89h2.11c0.71,0,1.25-0.18,1.62-0.54c0.36-0.36,0.54-0.85,0.54-1.47c0-0.63-0.18-1.13-0.54-1.48
			c-0.36-0.36-0.9-0.53-1.63-0.53h-2.11V106.89z"/>
		<path class="st4" d="M169.26,110.71h-4.88l-0.84,2.4h-1.99l4.17-11.78h2.21l4.17,11.78h-2.01L169.26,110.71z M168.74,109.21
			l-1.91-5.54l-1.93,5.54H168.74z"/>
		<path class="st4" d="M180.05,101.35l3.44,9.77l3.47-9.77h2.03l-4.37,11.77h-2.21L178,101.35H180.05z"/>
		<path class="st4" d="M197.51,102.84v3.57h4.02v1.49h-4.02v3.71h4.52v1.51h-6.43v-11.78h6.43v1.51H197.51z"/>
		<path class="st4" d="M211.32,111.64h3.94v1.47h-5.85v-11.77h1.91V111.64z"/>
		<path class="st4" d="M239.55,113.12l-1.52-2.08c-0.24,0.64-0.65,1.17-1.24,1.59c-0.59,0.42-1.26,0.63-1.99,0.63
			c-0.65,0-1.24-0.15-1.78-0.46c-0.54-0.31-0.96-0.73-1.27-1.28c-0.31-0.55-0.47-1.16-0.47-1.84c0-0.64,0.14-1.23,0.42-1.75
			c0.28-0.52,0.66-0.94,1.13-1.24c0.47-0.3,1-0.47,1.57-0.51l-0.1-0.14c-0.38-0.51-0.66-0.97-0.85-1.38
			c-0.18-0.41-0.28-0.83-0.28-1.24c0-0.5,0.12-0.96,0.37-1.39c0.25-0.43,0.61-0.78,1.08-1.04c0.48-0.27,1.04-0.4,1.68-0.4
			c0.65,0,1.21,0.13,1.68,0.38c0.48,0.25,0.84,0.59,1.09,1c0.25,0.41,0.38,0.85,0.38,1.31c0,0.32-0.05,0.6-0.15,0.86h-1.88
			c0.09-0.2,0.13-0.43,0.13-0.68c0-0.36-0.12-0.66-0.35-0.9c-0.23-0.24-0.54-0.36-0.91-0.36c-0.36,0-0.65,0.12-0.88,0.36
			c-0.23,0.24-0.34,0.53-0.34,0.88c0,0.24,0.04,0.47,0.13,0.69c0.09,0.23,0.26,0.5,0.5,0.81l6.12,8.16H239.55z M236.12,111.08
			c0.36-0.39,0.54-0.86,0.54-1.41c0-0.55-0.18-1.02-0.54-1.41c-0.36-0.38-0.8-0.57-1.32-0.57c-0.53,0-0.96,0.19-1.32,0.57
			c-0.35,0.38-0.53,0.85-0.53,1.41c0,0.56,0.18,1.04,0.54,1.42c0.36,0.38,0.79,0.58,1.31,0.58
			C235.32,111.66,235.76,111.47,236.12,111.08z"/>
		<path class="st4" d="M265.88,101.35v1.51h-3.1v10.26h-1.91v-10.26h-3.12v-1.51H265.88z"/>
		<path class="st4" d="M275.15,112.47c-0.91-0.51-1.63-1.23-2.16-2.15c-0.53-0.92-0.8-1.96-0.8-3.11s0.26-2.18,0.8-3.1
			c0.53-0.91,1.25-1.63,2.16-2.14c0.91-0.51,1.91-0.77,2.99-0.77c1.09,0,2.1,0.26,3.01,0.77c0.91,0.51,1.63,1.23,2.15,2.14
			c0.52,0.91,0.79,1.95,0.79,3.1s-0.26,2.19-0.79,3.11c-0.53,0.92-1.24,1.64-2.15,2.15c-0.91,0.51-1.91,0.77-3.01,0.77
			C277.06,113.24,276.06,112.98,275.15,112.47z M280.2,110.96c0.6-0.36,1.07-0.86,1.42-1.51c0.34-0.65,0.51-1.4,0.51-2.24
			c0-0.85-0.17-1.59-0.51-2.24c-0.34-0.64-0.81-1.14-1.42-1.49c-0.6-0.35-1.29-0.53-2.06-0.53c-0.77,0-1.46,0.18-2.06,0.53
			c-0.6,0.35-1.08,0.85-1.42,1.49c-0.34,0.64-0.51,1.39-0.51,2.24c0,0.85,0.17,1.59,0.51,2.24c0.34,0.65,0.81,1.15,1.42,1.51
			c0.6,0.36,1.29,0.53,2.06,0.53C278.91,111.49,279.6,111.31,280.2,110.96z"/>
		<path class="st4" d="M292.89,101.35v7.47c0,0.89,0.23,1.56,0.7,2.02c0.46,0.45,1.11,0.68,1.94,0.68c0.84,0,1.49-0.23,1.95-0.68
			c0.46-0.45,0.7-1.12,0.7-2.02v-7.47h1.91v7.47c0,0.96-0.21,1.77-0.62,2.44c-0.41,0.67-0.97,1.16-1.66,1.49
			c-0.69,0.33-1.46,0.49-2.3,0.49c-0.84,0-1.6-0.16-2.29-0.49c-0.69-0.33-1.23-0.82-1.63-1.49c-0.4-0.67-0.6-1.48-0.6-2.44v-7.47
			H292.89z"/>
		<path class="st4" d="M313.63,113.12l-2.68-4.71h-1.46v4.71h-1.91v-11.77h4.02c0.89,0,1.65,0.16,2.27,0.47
			c0.62,0.32,1.08,0.74,1.39,1.27c0.31,0.53,0.46,1.12,0.46,1.78c0,0.77-0.22,1.46-0.66,2.09c-0.44,0.63-1.12,1.05-2.04,1.28
			l2.88,4.88H313.63z M309.49,106.89h2.11c0.71,0,1.25-0.18,1.62-0.54c0.36-0.36,0.54-0.85,0.54-1.47c0-0.63-0.18-1.13-0.54-1.48
			c-0.36-0.36-0.9-0.53-1.63-0.53h-2.11V106.89z"/>
		<path class="st4" d="M324.93,112.82c-0.63-0.28-1.12-0.67-1.47-1.18c-0.36-0.51-0.54-1.1-0.54-1.78h2.04
			c0.04,0.53,0.24,0.97,0.6,1.3c0.35,0.34,0.85,0.51,1.48,0.51c0.66,0,1.17-0.17,1.54-0.5c0.37-0.33,0.55-0.77,0.55-1.3
			c0-0.39-0.12-0.72-0.34-0.97c-0.23-0.25-0.51-0.44-0.85-0.58c-0.34-0.14-0.81-0.28-1.42-0.44c-0.76-0.2-1.38-0.41-1.85-0.62
			c-0.48-0.21-0.88-0.53-1.21-0.97c-0.34-0.44-0.5-1.03-0.5-1.76c0-0.68,0.17-1.27,0.5-1.78c0.33-0.51,0.8-0.9,1.41-1.17
			s1.3-0.41,2.09-0.41c1.13,0,2.05,0.29,2.77,0.86c0.72,0.57,1.12,1.35,1.2,2.35h-2.11c-0.03-0.46-0.23-0.85-0.59-1.16
			c-0.36-0.31-0.85-0.47-1.47-0.47c-0.56,0-1.01,0.14-1.35,0.43c-0.34,0.29-0.51,0.71-0.51,1.28c0,0.36,0.11,0.66,0.33,0.89
			c0.22,0.23,0.49,0.41,0.83,0.55c0.34,0.14,0.79,0.28,1.37,0.44c0.77,0.21,1.4,0.43,1.88,0.64c0.49,0.21,0.9,0.54,1.24,0.99
			c0.34,0.45,0.51,1.04,0.51,1.79c0,0.6-0.16,1.16-0.48,1.69s-0.78,0.96-1.39,1.28c-0.61,0.32-1.33,0.48-2.15,0.48
			C326.26,113.24,325.55,113.1,324.93,112.82z"/>
		<path class="st4" d="M350.31,111.64h3.94v1.47h-5.85v-11.77h1.91V111.64z"/>
		<path class="st4" d="M362.78,101.35v11.77h-1.91v-11.77H362.78z"/>
		<path class="st4" d="M382.59,101.35v11.77h-1.91v-8.06l-3.55,8.06h-1.32l-3.57-8.06v8.06h-1.91v-11.77h2.06l4.09,9.23l4.07-9.23
			H382.59z"/>
		<path class="st4" d="M392.04,101.35v11.77h-1.91v-11.77H392.04z"/>
		<path class="st4" d="M407.1,101.35v1.51H404v10.26h-1.91v-10.26h-3.12v-1.51H407.1z"/>
		<path class="st4" d="M415.97,102.84v3.57h4.02v1.49h-4.02v3.71h4.52v1.51h-6.43v-11.78h6.43v1.51H415.97z"/>
		<path class="st4" d="M434.93,102.07c0.93,0.48,1.65,1.17,2.16,2.07c0.51,0.9,0.76,1.94,0.76,3.14s-0.25,2.24-0.76,3.12
			c-0.51,0.88-1.23,1.56-2.16,2.02s-2.02,0.7-3.26,0.7h-3.8v-11.77h3.8C432.91,101.35,434,101.59,434.93,102.07z M434.8,110.48
			c0.73-0.78,1.1-1.85,1.1-3.2c0-1.37-0.37-2.44-1.1-3.21c-0.73-0.77-1.77-1.16-3.13-1.16h-1.89v8.74h1.89
			C433.02,111.64,434.06,111.25,434.8,110.48z"/>
	</g>
	<path class="st4" d="M112.96,93.53l323.51-2.31c1.28-0.01,2.32,1.02,2.33,2.29c0.01,1.28-1.02,2.32-2.29,2.33
		C436.5,95.84,112.97,93.53,112.96,93.53L112.96,93.53z"/>
</g>
</svg>
