<?xml version="1.0" encoding="utf-8"?>
<!-- Generator: Adobe Illustrator 28.2.0, SVG Export Plug-In . SVG Version: 6.00 Build 0)  -->
<svg version="1.1" id="Layer_1" xmlns="http://www.w3.org/2000/svg" xmlns:xlink="http://www.w3.org/1999/xlink" x="0px" y="0px"
	 viewBox="0 0 854.61 234.37" style="enable-background:new 0 0 854.61 234.37;" xml:space="preserve">
<style type="text/css">
	
		.st0{clip-path:url(#SVGID_00000026152412679994847920000008046054579718612911_);fill:url(#SVGID_00000078745979638532776000000003518326325611146148_);}
	
		.st1{clip-path:url(#SVGID_00000003820164383974056980000005961622868154546593_);fill:url(#SVGID_00000138556282560489876880000017654249359852393618_);}
	
		.st2{clip-path:url(#SVGID_00000150091099596762322810000002149455716297711799_);fill:url(#SVGID_00000045598542413813893980000003251329237096340639_);}
	
		.st3{clip-path:url(#SVGID_00000178916585147916427060000003616564445292956335_);fill:url(#SVGID_00000173856912044847792080000009864524844729421247_);}
	.st4{fill:#154064;}
</style>
<g>
	<defs>
		<path id="SVGID_1_" d="M95.42,46.17c0.54-0.16,1.04-0.29,1.58-0.46c0.02,0.23,0.04,0.44,0.04,0.67c-0.51,0.07-1.02,0.12-1.53,0.19
			C95.48,46.44,95.44,46.29,95.42,46.17 M113.8,39.58c-2.39-0.07-4.77-0.54-7.02-0.79c13.43-7.6,34.72-6.69,48.34,3.71
			c-0.95,1.09-0.95,1.09-2.73,1.41c-0.02,0.27-0.05,0.56-0.09,0.85c-0.31,0.03-0.58,0.05-0.89,0.05c-1.92-0.05-3.77,0-5.65,0.76
			c-1.74,0.67-3.75,0.48-5.49,1.48c-0.31,0.19-1.07-0.37-1.72-0.62c0.27-0.54,0.74-0.53,1.18-0.51c0.56,0.01,1.08,0.03,1.1-1.05
			c-0.23-0.23-0.58-0.72-1.04-0.93c-1.99-0.93-4.13-1.13-6.26-0.83c-0.93,0.14-2.09,0.44-2.61,1.1c-1.02,1.27-2.39,1.9-3.71,2.69
			c-0.37,0.23-0.6,0.64-1.12,1.22c1.21,0.44,2.16,0.81,3.22,1.23c0.3,0.66,0.64,1.43,1.14,2.52c0.97-0.88,1.8-1.59,2.66-2.36v-2.55
			c1,1.23,1.67,2.04,2.53,3.13c-1.07,0.65-1.97,1.39-2.99,1.81c-1.96,0.8-2.17,0.69-3.63-1.04c-0.51-0.61-0.51-0.61-2.01-0.42
			c0.07,0.37,0.14,0.72,0.23,1.07c0.1,0.35,0.21,0.7,0.33,1.12c-1.7,0.85-3.29,1.66-4.89,2.46c0.18,0.53,0.35,0.97,0.58,1.55
			c-0.72,0.16-1.37,0.33-1.99,0.42c-2.46,0.39-2.92,1.22-1.99,3.56c0.09,0.25,0.32,0.46,0.6,0.86c0.83,0.09,1.78,0.18,2.78,0.28
			c1.3-2.09,1.59-5.2,5.12-4.61c1.82,0.28,3.27,1.37,4.24,3.57c0.51-0.46,0.97-0.91,1.53-1.41c-0.91-0.74-1.66-1.39-2.59-2.16
			c2.26-0.32,3.01,0.35,4.08,3.55c1.06-0.42,2.11-0.83,3.38-1.35c0.14,1.18,0.25,1.99,0.37,3.13c1.34-0.18,2.53-0.33,3.94-0.51
			c0.04,0.44,0.32,1.04,0.14,1.43c-0.46,1-1.32,1.64-2.51,1.7c-1.99,0.12-3.85-0.28-5.46-1.37c-2.12,1.18-3.22,0.74-6.35-2.45
			c-2.3,0.35-4.68,0.64-7.02,1.08c-0.62,0.12-1.23,0.56-1.74,0.97c-3.73,3.01-5.51,7.23-6.72,11.63c-0.85,3.2,1.16,5.47,4.48,6.16
			c1.97,0.39,3.85,0.02,5.76-0.09c4.17-0.27,6.16,1.58,6.55,5.84c0.28,3.07,0.81,6.12,1.33,9.16c0.14,0.85,0.58,1.66,0.97,2.43
			c1.18,2.22,2.41,4.43,3.65,6.6c0.58,1.02,1.21,2.02,2.97,1.99c0.27-0.46,0.93-1.07,0.99-1.71c0.42-4.33,2.7-7.58,5.68-10.49
			c0.33-0.35,0.65-0.72,1.04-1.16c-0.11-0.54-0.16-1.14-0.41-1.64c-0.7-1.46-0.4-2.9,0.34-4.17c1.56-2.78,3.22-5.49,4.94-8.2
			c0.51-0.77,0.99-1.42,0.46-2.58c-1.53,0.23-3.11,0.46-4.91,0.73c-2.09-2.84-2.88-6.3-4.13-9.57c-0.02,0-0.06-0.03-0.08-0.05
			c-0.07-0.1-0.15-0.18-0.17-0.21c0.02,0,0.12,0.09,0.21,0.17c0.02,0.02,0.02,0.06,0.04,0.1c2.2,1.22,3.38,3.27,4.45,5.42
			c1.51,3.01,3.55,3.4,5.85,1.02c0.87-0.89,1.59-1.93,2.45-3.01c-0.54-0.79-1-1.49-1.51-2.2c-0.91-0.06-1.76-0.12-2.72-0.18
			c-0.55-1.07-1.94-1.56-2.05-3.41c0.85,0.4,1.67,0.52,2.11,0.98c1.41,1.53,3.27,1.99,5.14,2.5c1.49,0.4,2.96,0.83,4.56,1.3
			c0.44,1.51,1.18,2.99,1.2,4.48c0.05,2.61,1.42,4.02,3.55,5.09c0.91-6.46,1.27-7.18,4.49-8.47c0.49,0.74,0.93,1.57,1.53,2.27
			c0.56,0.65,1.27,1.18,2.04,1.85c-0.72,2.3-0.07,4.24,1.49,6.07c0.53,0.62,0.6,1.81,0.58,2.73c-0.29,9.46-3.36,18.01-8.87,25.65
			c-7.26,10.06-16.96,16.68-29.12,19.15c-2.14,0.43-4.25,0.74-6.32,0.9c-0.13,0.02-0.24,0.03-0.37,0.03
			c-0.4,0.05-0.8,0.06-1.19,0.08c-0.06,0.02-0.14,0.02-0.21,0.02c-0.89,0.04-1.77,0.06-2.64,0.06c-1.1,0-2.18-0.03-3.26-0.1h-0.21
			c-0.21-0.02-0.39-0.02-0.58-0.04c-0.19-0.03-0.35-0.03-0.51-0.05c-0.42-0.04-0.84-0.08-1.23-0.14
			c-9.47-1.16-18.21-5.18-26.13-12.12c-0.12-0.12-0.19-0.33-0.27-0.48l-0.07,0.07c-0.19-0.21-0.37-0.42-0.56-0.61
			c-0.18-0.18-0.37-0.39-0.58-0.58c-0.18-0.2-0.39-0.41-0.6-0.6c-0.18-0.2-0.39-0.39-0.58-0.6c-0.02-0.04-0.02-0.1-0.04-0.14
			c-4.04-3.69-6.82-8.27-9.02-13.16c-3.35-7.44-4.72-15.27-4.1-23.68c0.67,0.56,1.18,1.12,1.81,1.43c0.56,0.29,1.24,0.33,2.15,0.54
			c-0.25,2.11-0.41,4.42-0.81,6.69c-0.37,2.02,0.14,3.78,1.62,4.98c3.29,2.64,3.92,6.32,4.25,10.1c0.16,2.03,0.16,4.03,1.22,5.86
			c0.19,0.33,0.35,0.74,0.35,1.12c-0.04,2.05,0.81,3.7,2.16,5.21c0.2,0.23,0.25,0.58,0.37,0.91c0.02,0.02,0.06,0.07,0.1,0.09
			c0.18,0.21,0.39,0.39,0.57,0.6c0.21,0.19,0.42,0.39,0.61,0.6c0.2,0.19,0.39,0.37,0.6,0.58c0.18,0.19,0.37,0.39,0.56,0.58
			c0.58-0.44,1.13-0.89,1.92-1.46c-0.88-0.92-1.6-1.67-2.41-2.54c-0.12-1.58-0.23-3.3-0.37-5.2c2.32-1.07,2.53-3.68,3.38-5.76
			c0.77-1.81,1.7-3.22,3.34-4.19c1.55-0.91,2.5-2.02,1.95-4.04c-0.31-1.08,0.35-1.97,1.08-2.82c1.8-2.11,1.67-2.99-0.44-4.66
			c-0.6-0.48-1.11-1.04-1.72-1.62c-0.62,0.23-1.24,0.46-1.92,0.7c-0.21-0.56-0.39-1.07-0.62-1.7H97c-0.23-0.25-0.42-0.45-0.58-0.68
			c-1.35-1.89-2.64-3.76-4.01-5.58c-0.25-0.33-0.85-0.42-1.3-0.54c-1.14-0.27-2.26-0.51-3.71-0.83c-0.78,0.64-1.71,1.43-2.63,2.2
			c-1.02-0.19-2.14-0.42-3.55-0.7c-0.06-0.81-0.14-1.83-0.2-2.94c-0.33-0.21-0.69-0.44-1.16-0.75c0.53-2.24,1.06-4.47,1.68-7.06
			c0.93,0.76,1.55,1.24,2.24,1.8c0.17-0.16,0.44-0.3,0.58-0.51c0.17-0.23,0.26-0.54,0.28-0.81c0.46-5.01,4.56-6.88,7.99-9.29
			c1.49-1.04,2.95-0.23,4.43,1c0.17-0.93,0.25-1.51,0.4-2.22c-1.3-0.42-2.46-0.79-3.53-1.14c1.33-0.77,1.35-0.81,3.03-0.17
			c1.1,0.42,2.14,1,3.43-0.23c-0.67-1.55-1.39-3.19-2.01-4.62c-1.16-0.49-2.18-0.91-3.18-1.3c-0.83-0.33-1.66-0.67-2.52-1
			l-0.02,0.02c-0.21,0.19-0.4,0.4-0.61,0.58c-0.39,0.58-0.76,1.16-1.16,1.74c-0.18,0.21-0.37,0.4-0.58,0.6
			c-0.06,0.15-0.14,0.28-0.2,0.4c0.06-0.14,0.11-0.28,0.18-0.44c0.21-0.19,0.4-0.37,0.6-0.56c0.38-0.6,0.75-1.18,1.12-1.78
			c0.19-0.21,0.39-0.4,0.58-0.6c0.02,0.02,0.07,0.02,0.1,0.04c0.51-0.58,0.99-1.11,1.55-1.74c1,0.44,1.86,0.83,2.78,1.27
			c1.3-0.72,2.61-1.43,4.12-2.26c-0.91-0.96-1.67-1.76-2.57-2.72c1.25-0.81,2.36-1.55,3.36-2.19c3.4,1.43,3.43,1.53,1.37,6.46
			c0.62,0.76,1.34,1.62,2.2,2.69c1.48-0.91,2.82-1.64,4.08-2.5c1.99-1.37,3.96-2.74,6.44-3.15c0.64-0.12,1.34-0.46,1.76-0.93
			c1.09-1.21,2.03-2.53,3.17-4.01c-1.73-0.39-3.42-0.35-5.08-0.3c-0.54,0.01-1.07,0.03-1.61,0.03
			C114.11,39.58,113.95,39.58,113.8,39.58 M127.74,31.72C97.3,31.77,76.79,56.88,77.37,82.16c-0.51,23.29,16.66,45.84,42.24,49.86
			c0.5,0.08,1.06,0.16,1.59,0.2c0.23,0.05,0.49,0.07,0.72,0.09c0.4,0.05,0.79,0.09,1.19,0.12l0.53,0.05
			c1.03,0.09,2.09,0.14,3.15,0.15c0.3,0.01,0.6,0.01,0.91,0.01c0.46,0,0.91,0,1.37-0.02c0.27,0,0.55,0,0.83-0.02
			c0.51-0.03,1.02-0.05,1.53-0.09c0.1-0.01,0.19-0.01,0.27-0.02c0.66-0.04,1.33-0.1,1.97-0.17c25.6-2.94,44.37-24.58,44.53-49.83
			c0.16-27.29-21.42-50.76-50.38-50.77C127.79,31.72,127.77,31.72,127.74,31.72"/>
	</defs>
	<clipPath id="SVGID_00000164504685845201619780000006591478530440983177_">
		<use xlink:href="#SVGID_1_"  style="overflow:visible;"/>
	</clipPath>
	
		<radialGradient id="SVGID_00000098929003401578895240000007456845841413516206_" cx="-112.6953" cy="664.325" r="1" gradientTransform="matrix(0 81.9448 81.9448 0 -54310.6602 9268.793)" gradientUnits="userSpaceOnUse">
		<stop  offset="0" style="stop-color:#FFC20E"/>
		<stop  offset="1" style="stop-color:#F58220"/>
	</radialGradient>
	
		<rect x="76.79" y="31.19" style="clip-path:url(#SVGID_00000164504685845201619780000006591478530440983177_);fill:url(#SVGID_00000098929003401578895240000007456845841413516206_);" width="101.56" height="101.45"/>
</g>
<g>
	<defs>
		<path id="SVGID_00000119080088196863284380000002382023156509758603_" d="M146.06,99.06c0.29,0.36,0.49,0.68,0.76,0.94
			c0.26,0.24,0.59,0.41,0.95,0.64c1.87-2.07,2.76-4.45,2.99-7.07c0.04-0.4-0.46-0.85-0.85-1.51
			C148.43,94.53,146.57,96.4,146.06,99.06"/>
	</defs>
	<clipPath id="SVGID_00000138538724919564951450000006163260715820857516_">
		<use xlink:href="#SVGID_00000119080088196863284380000002382023156509758603_"  style="overflow:visible;"/>
	</clipPath>
	
		<radialGradient id="SVGID_00000048493013025591329310000009866996333584666253_" cx="-112.6953" cy="664.325" r="1" gradientTransform="matrix(0 81.9448 81.9448 0 -54310.6602 9268.793)" gradientUnits="userSpaceOnUse">
		<stop  offset="0" style="stop-color:#FFC20E"/>
		<stop  offset="1" style="stop-color:#F58220"/>
	</radialGradient>
	
		<rect x="146.06" y="92.06" style="clip-path:url(#SVGID_00000138538724919564951450000006163260715820857516_);fill:url(#SVGID_00000048493013025591329310000009866996333584666253_);" width="4.74" height="8.58"/>
</g>
<g>
	<defs>
		<path id="SVGID_00000125572321729071075280000009450286867300954767_" d="M81.36,72.06c1.59,0.29,3.16,0.57,4.73,0.86
			c-1.04-1.29-1.95-1.89-2.8-1.89C82.64,71.03,82.01,71.39,81.36,72.06"/>
	</defs>
	<clipPath id="SVGID_00000000919729074353110240000017812538494833681803_">
		<use xlink:href="#SVGID_00000125572321729071075280000009450286867300954767_"  style="overflow:visible;"/>
	</clipPath>
	
		<radialGradient id="SVGID_00000178906194413467298170000011232807531230904705_" cx="-112.6953" cy="664.325" r="1" gradientTransform="matrix(0 81.9448 81.9448 0 -54310.6602 9268.793)" gradientUnits="userSpaceOnUse">
		<stop  offset="0" style="stop-color:#FFC20E"/>
		<stop  offset="1" style="stop-color:#F58220"/>
	</radialGradient>
	
		<rect x="81.36" y="71.03" style="clip-path:url(#SVGID_00000000919729074353110240000017812538494833681803_);fill:url(#SVGID_00000178906194413467298170000011232807531230904705_);" width="4.73" height="1.89"/>
</g>
<g>
	<defs>
		<path id="SVGID_00000034786568230290340110000013104296904336030601_" d="M86.83,73.79c1.01,0.48,1.77,0.48,2.31-0.73
			c-0.4-0.18-0.77-0.3-1.1-0.3C87.54,72.76,87.13,73.03,86.83,73.79"/>
	</defs>
	<clipPath id="SVGID_00000130640896984351049290000015094083216901655733_">
		<use xlink:href="#SVGID_00000034786568230290340110000013104296904336030601_"  style="overflow:visible;"/>
	</clipPath>
	
		<radialGradient id="SVGID_00000023998863392787512810000016185345731882666138_" cx="-112.6953" cy="664.325" r="1" gradientTransform="matrix(0 81.9448 81.9448 0 -54310.6602 9268.793)" gradientUnits="userSpaceOnUse">
		<stop  offset="0" style="stop-color:#FFC20E"/>
		<stop  offset="1" style="stop-color:#F58220"/>
	</radialGradient>
	
		<rect x="86.83" y="72.76" style="clip-path:url(#SVGID_00000130640896984351049290000015094083216901655733_);fill:url(#SVGID_00000023998863392787512810000016185345731882666138_);" width="2.31" height="1.51"/>
</g>
<g>
	<path class="st4" d="M42.16,103.03c0.28,15.38,5.24,28.54,12.98,39.54c1.32,1.88,2.71,3.71,4.19,5.45
		c0.92,1.12,1.88,2.21,2.87,3.27c0.26,0.28,0.53,0.56,0.79,0.83c3.75,3.93,7.88,7.52,12.24,10.74c0.28,0.22,0.57,0.43,0.86,0.64
		c0.27,0.19,0.55,0.38,0.82,0.57c0.35,0.24,0.71,0.48,1.07,0.73c4.7,3.29,9.64,6.16,14.67,8.61c1.03,0.52,2.07,1,3.1,1.46
		c19.89,9.01,38.87,10.36,38.87,10.36c7.06,0,13.18-0.39,18.9-1.11c1.33-0.17,8.99-1.14,16.9-3.13
		c16.15-4.07,29.8-11.47,37.93-16.47c-3.24,4.26-7.7,9.74-13.46,15.71c-6.24,6.48-18.98,18.7-37.76,29.77
		c-16.55,9.75-45.81,26.97-83.79,24.04c-14.6-1.14-26.27-4.92-33.76-7.9c8.48,1.69,19.86,2.99,33.16,1.92
		c8.89-0.72,16.63-2.31,22.96-4.1c-8.35,1-25.12,1.81-44-5.74c-24.41-9.8-37.38-27.64-41.9-34.59
		c16.58,15.71,32.68,22.71,42.56,26.05c52.65,17.65,102.16-10.82,108.21-14.41c1.02-0.6,2.22-1.34,3.61-2.24
		c-13.28,6.42-28.2,10.01-43.95,10.01c-56.04,0-101.47-45.43-101.47-101.48c0-59.58,53.28-99.5,101.47-101.47
		c34.68-1.41,70.66,16.68,87.8,44.02c11.19,17.84,14.76,40.19,15.38,44.36c1.99,13.32,1.51,24.68,0.65,32.68
		c-1.07-10.81-5.79-45.19-34.15-72.97c-8.48-8.3-30.98-30.38-62.6-30.19C86.76,18.22,41.31,55.03,42.16,103.03"/>
	<path class="st4" d="M211.97,149.2c-5.21,5.32-11.09,9.94-17.45,13.66c-0.06,0.04-0.11,0.06-0.17,0.11
		c-0.65,0.39-1.31,0.76-1.98,1.11c-7.9,4.36-16.43,7.4-25.37,9.07l-74.35,0.26c-5.03-2.44-9.97-5.32-14.67-8.61
		c-0.36-0.24-0.72-0.49-1.06-0.73c-0.27-0.19-0.55-0.38-0.82-0.57c-0.29-0.21-0.58-0.42-0.86-0.64c-4.36-3.21-8.49-6.81-12.24-10.74
		c-0.26-0.27-0.53-0.55-0.79-0.83c0.08-2.07-0.35-4.21,0.5-6.24c0.26-0.6-0.35-1.13-0.19-1.8c0.02-0.11,0.04-0.19,0.11-0.3
		c0.28-0.55,0.08-1.35,0.08-2.04v-12.16c0.7-1.02,1.33-1.97,1.96-2.93c0.08,0.29,0.06,0.88,0.35,1.13c1.32,1.26,1.41,2.82,1.39,4.5
		c-0.05,3.3,0,6.6,0,9.89c0,1.04,0.08,2.09-0.03,3.13c-0.1,0.89,0.35,1.74,0.16,2.62c-0.1,0.43-0.13,0.84-0.08,1.26
		c0.02,0.54,0.17,1.13,0.39,1.69c0.3,0.85,0.06,1.89,0.06,3.13c0.65-0.16,1.19-0.18,1.67-0.39c0.43-0.18,0.86-0.39,1.3-0.59
		c0.55-0.28,1.09-0.54,1.61-0.8c0.56-1.56-1.45-1.86-1.18-2.95c-0.72-0.48-1.64,0.33-1.69-0.76c1.45-1.29,3.73-1.04,5.12-2.74
		c-0.7-1.31-1.74-2.17-3.76-2.54c1.85-1.09,3.43-1.21,5.24-2.23c0.31-0.53,0.91-1.56,1.62-2.8c0.7,1.04,1.33,2,2,2.99
		c1.35,0.53,2.74,1.06,4.14,1.59c0.2,1.11-0.68,0.7-1.17,0.84c-0.45,0.69-0.93,1.39-1.43,2.13c1.17,1.65,3.37,1.52,4.73,2.76
		c-1.43,0.89-2.77,1.73-3.21,3.6c1.76,0.78,3.46,1.5,5.13,2.23c0.13-0.39,0.21-0.9,0.43-1.35c0.08-0.22,0.37-0.35,0.56-0.52
		c0.57,1.67,1.14,3.34,1.72,5.1h0.82c0.24-0.59,0.77-1.22,0.7-1.8c-0.19-1.82,1.48-2.58,2.09-3.95c0.16-0.37,0.8-0.65,1.26-0.74
		c4.25-0.94,7.83-3.32,11.74-5.06c0.37-0.16,0.78-0.26,1.17-0.37c-0.17,0.35-0.35,0.7-0.52,1.04c-0.41,0.04-0.96-0.18-1.04,0.52
		c-0.31,0.06-0.61,0.11-0.92,0.18c0,0.11,0.03,0.23,0.03,0.35h0.89c-0.92,0.52-1.76,1.17-2.74,1.52c-2.83,1.07-5.7,1.97-8.61,2.97
		c1.3,1.52,1.62,3.42,2.15,5.3h1.73c0.57-1.18-0.52-2.76,1.13-3.56h5.99c1.21-0.98,2.41-2.11,3.99-2.58c0,0,0,0.02,0.02,0.02v-0.02
		h-0.02c0.24-0.79,0.76-1.11,1.56-1.04l0.53,0.52c-0.13,0.28-0.26,0.57-0.41,0.9h3.97c0.04-0.63,0.08-1.13,0.13-1.65
		c1.82-0.67,2.26-2.26,2.56-3.93c-0.76,0.67-1.5,1.39-2.3,2.02c-0.39,0.29-0.9,0.39-1.35,0.58v-0.52c0.18-0.17,0.35-0.35,0.53-0.52
		c0.17-0.18,0.34-0.35,0.52-0.53c0.17-0.17,0.35-0.35,0.52-0.52c0.18-0.18,0.35-0.35,0.53-0.53c0.17-0.17,0.35-0.35,0.52-0.52
		c0.18-0.18,0.35-0.35,0.53-0.53c0.17-0.17,0.35-0.35,0.52-0.52h0.53c0.06,0.13,0.11,0.26,0.17,0.39c0.11-0.13,0.24-0.26,0.35-0.39
		l2.6-2.6c1.41-0.61,2.8-1.22,3.93-1.72c0.28-1.61,0.35-2.97,0.84-4.17c0.22-0.52,0.3-1.01,0.35-1.52c0.05-0.31,0.07-0.6,0.09-0.93
		c0-0.07,0-0.15,0.01-0.23c0-0.06,0.01-0.14,0.01-0.2c0.01-0.15,0.03-0.27,0.05-0.4c0.02-0.14,0.02-0.24,0.02-0.26
		c0.01-0.12,0.1-0.47,0.33-1.22c0.14-0.47,0.33-1.11,0.6-1.93c-0.13-0.14-0.73-0.76-0.75-1.72c-0.01-1.33,1.12-2.08,1.19-2.13
		c0.3-1.22,0.6-2.43,0.91-3.66c0.12,0.35,0.22,0.7,0.33,1.06c0.26,0.93,0.48,1.81,0.64,2.67c0.2,0.15,0.75,0.61,0.96,1.41
		c0.33,1.29-0.5,2.31-0.59,2.41c0.34,0.66,0.58,1.23,0.76,1.71c0.4,1.03,0.48,1.67,0.45,2.1v0.01c0,0.16-0.05,0.72,0.07,1.44
		c0.01,0.1,0.07,0.48,0.23,0.97c0.15,0.45,0.4,1.08,0.85,1.78c-0.18,1.26-0.26,2.04-0.35,2.8c1.71,0.63,3.2,1.17,4.69,1.72
		c0.17,0.17,0.34,0.35,0.52,0.52c0.17,0.18,0.35,0.35,0.52,0.53c0.12,0.13,0.22,0.25,0.35,0.39c0.04-0.14,0.12-0.26,0.18-0.39h0.52
		l1.04,1.03v1.04h-0.52c0.17,0.18,0.35,0.35,0.52,0.53c0.57,1.37,1.13,2.73,1.65,4.04c0.56,0.11,0.95,0.17,1.32,0.24
		c0.14,0.74,0.24,1.34,0.37,1.97c1.39-0.11,2.63,0.18,3.78-0.13c-0.53-0.55-0.96-0.98-1.41-1.43c0.15-0.06,0.28-0.14,0.41-0.18
		c-0.13-0.13-0.26-0.23-0.41-0.35c-0.18-0.17-0.35-0.35-0.52-0.52c0.02-0.18,0.02-0.35,0.02-0.53c1.13-0.06,1.62,0.72,2.08,1.57
		c1.22,0.67,2.74,1.09,3.54,2.09c1.02,1.23,2.09,1.56,3.5,1.56c1.6-0.02,3.23,0,5.01,0v3.54h2.42c-0.17-0.39-0.3-0.67-0.41-0.9
		c0.67-1.66,1.41-3.19,2.54-4.51c-0.76-0.26-1.45-0.59-2.17-0.72l3.17,0.35c0.08,0.13,0.41,0.6,0.67,0.99
		c2.13-1.13,4.16-2.21,6.51-3.45c-1.37-1.21-2.56-2.27-3.87-3.46c1.45-1.11,3.41-1.41,4.77-2.4c0.53-1,1.06-1.84,1.41-2.76
		c0.33-0.84,0.46-1.76,0.7-2.66c0.72,0.74,0.02,1.69,0.37,2.47c0.61,0.9,1.2,1.78,2.11,3.11c1.13,0.57,2.78,1.39,4.48,2.23
		c-1.22,1.11-2.43,2.19-3.85,3.5c1.21,0.63,2.13,1.13,3.15,1.64c1.66-0.82,3.32-1.62,5-2.47c-0.64-2.02-1.82-3.26-3.99-3.41
		c-0.48-0.02-0.91-0.56-1.5-0.95c2.39-0.79,4.5-1.46,6.61-2.17c0.8-0.26,0.89-0.63,0.8-2.61c-0.94-0.41-1.96-0.89-3.39-1.54
		c1.24-0.41,2.11-0.93,3-0.96c1.69-0.04,2.5-0.82,2.71-2.4c0.02-0.08,0.28-0.16,0.61-0.3c0.1,0.26,0.3,0.52,0.33,0.78
		c0.19,1.58,0.19,1.56,1.82,1.86c1.13,0.22,2.23,0.53,3.45,0.8c-0.15,0.29-0.19,0.65-0.35,0.7c-2.34,0.65-2.34,0.63-3.4,3.09
		c2.34,1.04,4.77,1.8,7.31,2.6v1.04c-1.76-0.11-3.21,0.65-4.55,1.89v1.78c1.8,1.02,3.55,2.15,5.62,2.68l0.02,0.02
		c0.28,0.91,1.02,0.35,1.57,0.52c0.25,0.84,0.82,0.53,1.36,0.35L211.97,149.2z"/>
	<path class="st4" d="M0,122.07c9.4,23.75,23.36,44.51,43.52,59.84c20.2,15.28,43.94,23.12,69.34,25.82
		c-6.35,1.77-12.99,2.51-19.65,2.55C44.94,210.75,1.17,170.79,0,122.07"/>
	<path class="st4" d="M225.71,155.72c0.34,0.3,0.67,0.6,1.01,0.91c0.93-0.37-0.5-1.63,0.79-1.93c0.19,0.26,0.39,0.55,0.67,0.93
		c0.14-0.29,0.32-0.53,0.36-0.79c0.05-0.33-0.02-0.68,0-1.02c0-0.08,0.17-0.15,0.31-0.26c0.3,0.23,0.61,0.46,0.92,0.69
		c0.65-0.53-0.52-1.45,0.68-1.82c0.21,0.18,0.49,0.42,0.82,0.7c0.09-0.16,0.26-0.33,0.23-0.45c-0.15-0.54-0.39-1.07,0.4-1.38
		c0.27,0.22,0.56,0.46,1.11,0.92c-0.15-1.06-0.51-1.88,0.52-2.57c-2.86-0.99-5.52-1.91-8.31-2.88c0.46-0.66,0.83-1.18,1.21-1.71
		c0.08-0.05,0.15-0.11,0.14-0.1c0.01-0.01-0.05,0.06-0.11,0.13c-0.82,0.38-1.64,0.75-2.54,1.16c-2.64-0.85-5.31-1.71-7.98-2.57
		c-4.24-1.36-8.48-2.74-12.72-4.1c-1.22-0.39-2.39-0.87-3.29-1.88c0.88-0.39,2.01-0.47,3.31-0.3c0.85,0.11,1.7,0.2,2.55,0.25
		c3.66,0.24,7.32,0.47,10.98,0.7c0.12,0.01,0.24,0.01,0.37,0.01c3.36,0.15,6.73,0.28,10.09,0.46c1.7,0.09,3.4,0.27,5.02,0.4
		c0.62-0.57,1.08-1.06,1.61-1.48c1.44-1.13,3.02-1.65,4.77-0.8c0.47,0.23,0.92,0.61,1.25,1.03c1.35,1.69,0.83,3.25-1.31,4.05
		c-2.28-0.96-2.65-1.88-1.6-4.18c-0.82-0.29-1.33,0.2-1.59,0.77c-0.32,0.69-0.41,1.49-0.55,2.05c0.82,1.77,1.76,2.92,3.67,2.93
		c1.79,0.01,2.6-1.12,3.16-2.5h2.49c-1.42,2.93-3.18,5.42-5.13,7.77c-1.33,1.59-2.75,3.11-4.12,4.65l-0.35,0.39
		c-0.25,0.12-0.49,0.24-0.73,0.36c-0.06,0.05-0.12,0.11-0.13,0.12c0.01-0.01,0.05-0.08,0.1-0.15c0.24-0.12,0.49-0.24,0.74-0.36
		c0.13-0.12,0.26-0.24,0.38-0.36c1.6-0.54,2.85-1.66,4.03-2.77c4.15-3.91,8.2-7.93,12.31-11.88c3.37-3.23,6.91-6.23,11.01-8.52
		c2.36-1.31,4.84-2.31,7.43-3.09c-0.66-1.25-1.33-1.62-2.78-1.23c-1.47,0.4-2.89,0.97-4.32,1.51c-0.68,0.26-1.32,0.61-2.08,0.98
		c-0.09-0.38-0.16-0.65-0.25-1.06c1.35-0.64,2.65-1.26,3.95-1.88c-2.01-0.15-3.85,0.36-5.62,1.2c-2.24,1.06-4.14,2.61-6.02,4.17
		c-3.16,2.62-6.29,5.26-9.45,7.89c-0.36,0.3-0.79,0.52-1.18,0.78c-0.63-0.62-0.42-1.07,0.04-1.48c1.11-0.97,2.22-1.93,3.35-2.87
		c2.59-2.15,5.2-4.29,7.79-6.43c2.67-2.21,5.58-3.93,9.05-4.59c2.16-0.41,4.27-0.24,6.35,0.3c0.61,0.16,1.18,0.64,1.69,1.06
		c0.79,0.65,0.96,1.49,0.66,2.49c-0.63,2.06-1.91,3.73-3.4,5.16c-2.24,2.16-4.62,4.2-7.02,6.19c-3.57,2.98-7.29,5.79-10.81,8.83
		c-7.42,6.41-15.75,11.17-25.11,14.06c-2.9,0.9-5.9,1.5-8.88,2.15c-0.81,0.18-1.7,0.03-2.85,0.03c3.1-2.51,6.02-4.82,8.89-7.21
		c2.92-2.43,5.77-4.93,8.75-7.48c0.31,0.05,0.71,0.12,1.17,0.19c-0.08,0.27-0.08,0.49-0.19,0.58c-1.38,1.22-2.78,2.4-4.16,3.62
		c-0.54,0.48-1.02,1.01-1.54,1.52l-0.38,0.37c-0.8,0.44-0.9,0.99-0.29,1.74c0.86-0.54,0.06-1.22,0.25-1.77
		C225.46,155.97,225.59,155.84,225.71,155.72 M237.52,146.18c-1.43,0.25-2.85,0.51-4.27,0.76c1.55,0.34,3,0.23,4.25-0.78
		c0.18-0.04,0.37-0.08,0.55-0.12c-0.04-0.07-0.08-0.14-0.12-0.21C237.79,145.94,237.65,146.06,237.52,146.18"/>
	<path class="st4" d="M256.51,143.63c0.54,0.51,1.02,0.97,1.47,1.4c0.8-0.28,1.53-0.6,2.29-0.77c1.82-0.41,3.56,0.33,4.42,1.79
		c0.66,1.11,0.81,3.27-0.44,4.64c-1.78,1.94-4,2.98-6.58,3.23c-1.03,0.1-2.08,0.02-3.09,0.02c-1.94-1.1-3.84-2.17-5.98-3.38
		C251.35,148.14,253.91,145.91,256.51,143.63 M260.6,145.42c-1.34,0.44-1.47,1.38-1.34,2.41c0.13,1.07,1.1,2.23,2.03,2.35
		c0.87,0.11,1.86,0.33,2.33-0.85C260.33,148.79,260.49,147.56,260.6,145.42"/>
	<path class="st4" d="M219.59,157.69c-1.02-0.06-1.8-0.1-2.78-0.15c-1.3-3.33-2.59-6.66-3.93-10.09c0.64-0.33,1.22-0.63,1.94-1
		c2.69,2.67,5.37,5.33,8.09,8.03C222.09,155.91,220.54,156.45,219.59,157.69"/>
	<path class="st4" d="M202.64,159.32c1.19-0.72,1.97-1.19,2.84-1.71c4.04,0.36,8.16,0.73,12.64,1.13c-1.54,1.23-2.83,2.26-4.25,3.4
		C210.23,161.48,206.65,160.32,202.64,159.32"/>
	<path class="st4" d="M263.79,152.27c1.53,2.21,2.95,4.25,4.43,6.38c-0.32,0.36-0.59,0.67-0.94,1.08
		c-3.62-1.58-7.22-3.15-10.83-4.73C259.03,154.54,261.53,154.09,263.79,152.27"/>
	<path class="st4" d="M255.11,129.49c0.39-0.2,0.69-0.36,1.06-0.56c0.14,0.81,0.26,1.52,0.41,2.4c-0.31,0.27-0.69,0.61-1.16,1.02
		C254.94,131.3,255.21,130.4,255.11,129.49"/>
	<path class="st4" d="M252.81,133.21c-0.61-0.94-0.61-0.94,0.18-1.8C253.59,132.11,253.53,132.67,252.81,133.21"/>
	<path class="st4" d="M251.75,134.21c-0.22,0.07-0.48,0.15-0.73,0.23c-0.39-0.58-0.44-1.05,0.13-1.56
		C251.73,133.11,251.94,133.5,251.75,134.21"/>
	<path class="st4" d="M249.88,134.1c0.17,0.35,0.32,0.67,0.5,1.06c-0.21,0.24-0.39,0.46-0.57,0.66c-0.17-0.08-0.33-0.09-0.38-0.17
		C249.12,135.04,249.09,134.49,249.88,134.1"/>
	<path class="st4" d="M246.72,136.44c0.54,0.67,0.89,1.15-0.03,1.7C246.22,137.64,246.14,137.18,246.72,136.44"/>
	<path class="st4" d="M248.25,135.2c0.19,0.47,0.34,0.67,0.34,0.88c0,0.28-0.11,0.56-0.21,0.98
		C247.66,136.53,247.6,136.07,248.25,135.2"/>
	<path class="st4" d="M245.21,139.32c-0.5-0.66-0.5-1.1,0.19-1.53C245.77,138.3,246.08,138.74,245.21,139.32"/>
	<path class="st4" d="M244.08,139.2c-0.05,0.23-0.1,0.45-0.14,0.68c-0.15-0.05-0.3-0.11-0.46-0.16c0.11-0.2,0.22-0.41,0.33-0.61
		C243.9,139.13,243.99,139.17,244.08,139.2"/>
	<path class="st4" d="M316.16,30.56v72.5c0,7.28-1.85,12.88-5.54,16.79c-3.7,3.92-9.01,5.87-15.92,5.87
		c-6.93,0-12.17-1.96-15.75-5.87c-3.56-3.92-5.35-9.51-5.35-16.79v-72.5H244v72.5c0,7.71,1.1,14.59,3.33,20.65l0.92-0.77
		c4.05-3.33,8.14-5.37,12.5-6.21c1.25-0.24,2.55-0.37,3.86-0.37c1.9,0,3.85,0.26,5.84,0.78c2.23,0.58,3.76,1.84,4.59,2.52
		c3.2,2.63,4.38,6.7,3.15,10.68c-0.93,3.07-2.71,5.83-5.4,8.43c-0.78,0.75-1.56,1.44-2.36,2.16c0.31,0.38,0.58,0.8,0.84,1.22
		c1.18,2,1.77,4.67,1.47,7.34c6.47,2.51,13.63,3.75,21.44,3.75c9.57,0,18.25-1.9,26.05-5.7c7.79-3.81,13.98-9.45,18.6-16.96
		c4.6-7.5,6.91-16.67,6.91-27.52v-72.5H316.16z"/>
	<polygon class="st4" points="445.59,30.56 445.59,105.85 396.1,30.56 366.52,30.56 366.52,152.04 396.1,152.04 396.1,77.12 
		445.59,152.04 475.18,152.04 475.18,30.56 	"/>
	<rect x="496.63" y="30.56" class="st4" width="29.6" height="121.48"/>
	<polygon class="st4" points="541.11,30.56 541.11,53.94 573.3,53.94 573.3,152.04 602.88,152.04 602.88,53.94 635.07,53.94 
		635.07,30.56 	"/>
	<polygon class="st4" points="724.35,53.94 724.35,30.57 649.94,30.57 649.94,152.04 724.35,152.04 724.35,128.69 679.54,128.69 
		679.54,101.52 719.17,101.52 719.17,79.19 679.54,79.19 679.54,53.94 	"/>
	<path class="st4" d="M844.87,59.55c-5.25-9.16-12.65-16.29-22.22-21.37c-9.57-5.08-20.77-7.62-33.57-7.62h-45.5v121.48h45.5
		c12.7,0,23.85-2.54,33.48-7.62c9.64-5.06,17.07-12.22,22.32-21.46c5.26-9.22,7.88-19.78,7.88-31.66
		C852.74,79.31,850.13,68.73,844.87,59.55 M813.3,117.43c-6.23,6.24-14.94,9.35-26.12,9.35h-14.03V55.83h14.03
		c11.18,0,19.9,3.12,26.12,9.35c6.22,6.22,9.35,14.94,9.35,26.12C822.64,102.5,819.52,111.2,813.3,117.43"/>
	<polygon class="st4" points="260.15,181.72 260.15,184.71 253.99,184.71 253.99,205.1 250.2,205.1 250.2,184.71 244,184.71 
		244,181.72 	"/>
	<path class="st4" d="M285.99,205.1l-5.33-9.36h-2.9v9.36h-3.8v-23.39h7.99c1.78,0,3.28,0.32,4.51,0.94
		c1.23,0.63,2.15,1.47,2.76,2.52c0.61,1.06,0.92,2.23,0.92,3.53c0,1.52-0.44,2.91-1.32,4.16c-0.88,1.25-2.23,2.09-4.05,2.54
		l5.73,9.69H285.99z M277.77,192.72h4.2c1.42,0,2.49-0.36,3.21-1.08c0.72-0.72,1.08-1.69,1.08-2.93c0-1.26-0.36-2.24-1.06-2.94
		c-0.71-0.71-1.79-1.06-3.23-1.06h-4.2V192.72z"/>
	<path class="st4" d="M318.96,200.33h-9.69l-1.66,4.78h-3.96l8.29-23.42h4.4l8.29,23.42h-4L318.96,200.33z M317.93,197.33l-3.8-11
		l-3.83,11H317.93z"/>
	<polygon class="st4" points="340.41,181.72 347.24,201.13 354.13,181.72 358.16,181.72 349.47,205.1 345.07,205.1 336.35,181.72 	
		"/>
	<polygon class="st4" points="375.11,184.68 375.11,191.78 383.1,191.78 383.1,194.74 375.11,194.74 375.11,202.11 384.1,202.11 
		384.1,205.1 371.31,205.1 371.31,181.68 384.1,181.68 384.1,184.68 	"/>
	<polygon class="st4" points="402.55,202.18 410.38,202.18 410.38,205.1 398.75,205.1 398.75,181.72 402.55,181.72 	"/>
	<path class="st4" d="M458.66,205.1l-3.03-4.14c-0.47,1.28-1.29,2.33-2.46,3.16c-1.18,0.83-2.5,1.24-3.96,1.24
		c-1.29,0-2.46-0.3-3.53-0.91c-1.07-0.61-1.91-1.45-2.53-2.54c-0.62-1.09-0.93-2.3-0.93-3.65c0-1.28,0.28-2.44,0.83-3.48
		c0.55-1.04,1.3-1.87,2.25-2.47c0.94-0.6,1.98-0.94,3.11-1.01l-0.2-0.27c-0.76-1.01-1.32-1.92-1.68-2.74
		c-0.36-0.82-0.55-1.64-0.55-2.47c0-0.99,0.24-1.91,0.73-2.76c0.49-0.85,1.21-1.54,2.15-2.07c0.95-0.53,2.06-0.79,3.35-0.79
		c1.29,0,2.4,0.25,3.35,0.76c0.95,0.51,1.67,1.17,2.17,1.99c0.5,0.82,0.75,1.69,0.75,2.61c0,0.63-0.1,1.2-0.3,1.72h-3.73
		c0.18-0.4,0.27-0.85,0.27-1.35c0-0.72-0.23-1.31-0.7-1.78c-0.47-0.47-1.07-0.71-1.8-0.71c-0.71,0-1.29,0.24-1.75,0.71
		c-0.46,0.47-0.68,1.06-0.68,1.75c0,0.47,0.09,0.93,0.27,1.38c0.18,0.45,0.51,0.99,1,1.62l12.16,16.22H458.66z M451.85,201.05
		c0.72-0.77,1.08-1.71,1.08-2.81c0-1.1-0.36-2.03-1.08-2.79c-0.72-0.76-1.59-1.14-2.62-1.14c-1.04,0-1.91,0.38-2.61,1.14
		c-0.7,0.76-1.05,1.7-1.05,2.79c0,1.12,0.35,2.07,1.07,2.83c0.71,0.76,1.58,1.14,2.6,1.14S451.13,201.82,451.85,201.05"/>
	<polygon class="st4" points="510.98,181.72 510.98,184.71 504.82,184.71 504.82,205.1 501.02,205.1 501.02,184.71 494.83,184.71 
		494.83,181.72 	"/>
	<path class="st4" d="M529.41,203.81c-1.81-1.02-3.24-2.45-4.3-4.27c-1.05-1.83-1.58-3.89-1.58-6.17c0-2.29,0.53-4.34,1.58-6.16
		c1.05-1.82,2.49-3.23,4.3-4.26c1.81-1.02,3.79-1.53,5.94-1.53c2.18,0,4.17,0.51,5.98,1.53c1.81,1.02,3.23,2.44,4.28,4.26
		c1.04,1.82,1.56,3.87,1.56,6.16c0,2.29-0.52,4.35-1.56,6.17c-1.04,1.83-2.47,3.25-4.28,4.27c-1.81,1.02-3.8,1.53-5.98,1.53
		C533.2,205.34,531.22,204.83,529.41,203.81 M539.45,200.81c1.2-0.71,2.14-1.71,2.81-2.99c0.68-1.29,1.02-2.78,1.02-4.46
		c0-1.68-0.34-3.16-1.02-4.44c-0.68-1.28-1.62-2.27-2.81-2.96c-1.2-0.7-2.57-1.04-4.1-1.04c-1.53,0-2.9,0.35-4.1,1.04
		c-1.2,0.69-2.14,1.68-2.82,2.96c-0.68,1.28-1.02,2.76-1.02,4.44c0,1.68,0.34,3.17,1.02,4.46c0.68,1.29,1.62,2.29,2.82,2.99
		c1.2,0.71,2.56,1.06,4.1,1.06C536.89,201.87,538.25,201.52,539.45,200.81"/>
	<path class="st4" d="M564.66,181.72v14.84c0,1.77,0.46,3.11,1.38,4c0.92,0.9,2.2,1.35,3.85,1.35c1.67,0,2.96-0.45,3.88-1.35
		c0.92-0.9,1.38-2.23,1.38-4v-14.84h3.8v14.84c0,1.91-0.41,3.52-1.23,4.85c-0.82,1.32-1.92,2.31-3.3,2.96
		c-1.38,0.65-2.9,0.98-4.56,0.98c-1.67,0-3.18-0.33-4.55-0.98c-1.36-0.65-2.45-1.64-3.25-2.96c-0.8-1.32-1.2-2.94-1.2-4.85v-14.84
		H564.66z"/>
	<path class="st4" d="M605.89,205.1l-5.33-9.36h-2.9v9.36h-3.8v-23.39h7.99c1.78,0,3.28,0.32,4.51,0.94
		c1.23,0.63,2.15,1.47,2.76,2.52c0.61,1.06,0.91,2.23,0.91,3.53c0,1.52-0.44,2.91-1.32,4.16c-0.88,1.25-2.23,2.09-4.05,2.54
		l5.73,9.69H605.89z M597.66,192.72h4.19c1.42,0,2.49-0.36,3.21-1.08c0.72-0.72,1.08-1.69,1.08-2.93c0-1.26-0.35-2.24-1.06-2.94
		c-0.71-0.71-1.79-1.06-3.23-1.06h-4.19V192.72z"/>
	<path class="st4" d="M628.33,204.52c-1.24-0.55-2.22-1.33-2.93-2.34c-0.71-1.01-1.07-2.19-1.07-3.53h4.06
		c0.09,1.05,0.48,1.92,1.18,2.59c0.7,0.67,1.68,1.01,2.95,1.01c1.31,0,2.33-0.33,3.06-0.99c0.73-0.66,1.1-1.52,1.1-2.58
		c0-0.78-0.23-1.42-0.68-1.92c-0.46-0.49-1.02-0.88-1.7-1.14c-0.68-0.27-1.62-0.56-2.82-0.88c-1.51-0.4-2.74-0.81-3.68-1.23
		c-0.94-0.41-1.75-1.06-2.41-1.93c-0.67-0.88-1-2.04-1-3.5c0-1.35,0.33-2.52,1-3.53c0.67-1.01,1.6-1.78,2.8-2.32
		c1.2-0.54,2.59-0.81,4.16-0.81c2.24,0,4.08,0.57,5.51,1.7c1.43,1.13,2.23,2.69,2.38,4.66h-4.2c-0.07-0.92-0.46-1.69-1.18-2.3
		c-0.72-0.62-1.69-0.93-2.91-0.93c-1.11,0-2,0.29-2.68,0.86c-0.68,0.57-1.02,1.42-1.02,2.54c0,0.72,0.22,1.31,0.65,1.77
		c0.43,0.46,0.98,0.82,1.65,1.1c0.67,0.27,1.58,0.56,2.73,0.87c1.53,0.43,2.78,0.85,3.75,1.28c0.97,0.43,1.79,1.08,2.46,1.97
		c0.68,0.89,1.02,2.07,1.02,3.55c0,1.19-0.32,2.31-0.95,3.37c-0.63,1.05-1.55,1.9-2.76,2.54c-1.21,0.64-2.64,0.96-4.28,0.96
		C630.97,205.34,629.57,205.07,628.33,204.52"/>
	<polygon class="st4" points="678.78,202.18 686.61,202.18 686.61,205.1 674.99,205.1 674.99,181.72 678.78,181.72 	"/>
	<rect x="699.76" y="181.72" class="st4" width="3.8" height="23.39"/>
	<polygon class="st4" points="742.92,181.72 742.92,205.1 739.12,205.1 739.12,189.09 732.06,205.1 729.43,205.1 722.34,189.09 
		722.34,205.1 718.54,205.1 718.54,181.72 722.64,181.72 730.77,200.06 738.86,181.72 	"/>
	<rect x="757.91" y="181.72" class="st4" width="3.8" height="23.39"/>
	<polygon class="st4" points="791.64,181.72 791.64,184.71 785.48,184.71 785.48,205.1 781.68,205.1 781.68,184.71 775.49,184.71 
		775.49,181.72 	"/>
	<polygon class="st4" points="809.26,184.68 809.26,191.78 817.25,191.78 817.25,194.74 809.26,194.74 809.26,202.11 818.25,202.11 
		818.25,205.1 805.46,205.1 805.46,181.68 818.25,181.68 818.25,184.68 	"/>
	<path class="st4" d="M846.94,183.15c1.85,0.95,3.29,2.32,4.3,4.11c1.01,1.78,1.52,3.86,1.52,6.24s-0.51,4.44-1.52,6.19
		c-1.01,1.75-2.44,3.09-4.3,4.02c-1.85,0.93-4.01,1.4-6.48,1.4h-7.56v-23.39h7.56C842.92,181.72,845.08,182.19,846.94,183.15
		 M846.67,199.86c1.45-1.55,2.18-3.67,2.18-6.36c0-2.71-0.73-4.84-2.18-6.38c-1.46-1.54-3.53-2.3-6.21-2.3h-3.76v17.36h3.76
		C843.14,202.18,845.21,201.4,846.67,199.86"/>
	<path class="st4" d="M207.09,166.17l642.9-4.59c2.53-0.02,4.6,2.02,4.62,4.56s-2.02,4.6-4.56,4.62
		C850.05,170.77,207.11,166.17,207.09,166.17"/>
</g>
</svg>
