<?xml version="1.0" encoding="utf-8"?>
<!-- Generator: Adobe Illustrator 28.2.0, SVG Export Plug-In . SVG Version: 6.00 Build 0)  -->
<svg version="1.1" id="Layer_1" xmlns="http://www.w3.org/2000/svg" xmlns:xlink="http://www.w3.org/1999/xlink" x="0px" y="0px"
	 viewBox="0 0 300 300" style="enable-background:new 0 0 300 300;" xml:space="preserve">
<style type="text/css">
	
		.st0{clip-path:url(#SVGID_00000147943119162143590750000008871608969277369774_);fill:url(#SVGID_00000104663989185336969370000007108350763034387382_);}
	
		.st1{clip-path:url(#SVGID_00000003078327682357189860000011374253093864241841_);fill:url(#SVGID_00000001651124601552518700000001164281229934190981_);}
	
		.st2{clip-path:url(#SVGID_00000149355190011762380490000008549514308090026423_);fill:url(#SVGID_00000000915806872613940130000014930193272594808724_);}
	
		.st3{clip-path:url(#SVGID_00000139284682202235436230000004144969882162307249_);fill:url(#SVGID_00000006682342503938480100000009706871083129392032_);}
	.st4{fill:#154064;}
	.st5{fill:url(#SVGID_00000037659987529594282080000010079175489606758033_);}
	.st6{fill:url(#SVGID_00000000198712151860333470000017808630630484048815_);}
	.st7{fill:url(#SVGID_00000059988267907418736730000002699808564871992980_);}
	.st8{fill:url(#SVGID_00000085238076018679301010000016512827418940160930_);}
</style>
<g>
	<g>
		
			<radialGradient id="SVGID_00000096017678645692801050000001937820789253114303_" cx="141.6196" cy="348.3394" r="84.1295" gradientTransform="matrix(1 0 0 -1 0 412.9275)" gradientUnits="userSpaceOnUse">
			<stop  offset="0" style="stop-color:#FFC116"/>
			<stop  offset="1" style="stop-color:#F48220"/>
		</radialGradient>
		<path style="fill:url(#SVGID_00000096017678645692801050000001937820789253114303_);" d="M142.01,62.25
			c-31.26,0.06-52.29,25.83-51.7,51.78c-0.51,23.91,17.1,47.07,43.38,51.19c0.51,0.08,1.1,0.16,1.63,0.2
			c0.24,0.06,0.49,0.08,0.73,0.1c0.41,0.06,0.82,0.1,1.22,0.12l0.55,0.06c1.06,0.1,2.14,0.14,3.24,0.14
			c0.31,0.02,0.61,0.02,0.94,0.02c0.47,0,0.94,0,1.41-0.02c0.29,0,0.57,0,0.86-0.02c0.51-0.04,1.04-0.06,1.57-0.1
			c0.1-0.02,0.2-0.02,0.29-0.02c0.67-0.04,1.37-0.1,2.02-0.16c26.28-3.02,45.56-25.24,45.72-51.15
			C193.98,86.33,171.8,62.21,142.01,62.25z M110.47,76.61c0.02,0.24,0.04,0.45,0.04,0.69c-0.51,0.08-1.04,0.12-1.57,0.2
			c-0.04-0.14-0.08-0.29-0.1-0.41C109.39,76.94,109.92,76.8,110.47,76.61z M152.48,162.59c-2.2,0.45-4.37,0.75-6.49,0.92
			c-0.12,0.02-0.24,0.04-0.39,0.04c-0.41,0.06-0.82,0.06-1.22,0.08c-0.06,0.02-0.14,0.02-0.22,0.02c-0.92,0.04-1.82,0.06-2.71,0.06
			c-1.12,0-2.24-0.04-3.35-0.1h-0.22c-0.22-0.02-0.41-0.02-0.59-0.04c-0.2-0.04-0.35-0.04-0.51-0.06c-0.43-0.04-0.86-0.08-1.26-0.14
			c-9.73-1.18-18.69-5.33-26.83-12.45c-0.12-0.12-0.2-0.33-0.29-0.49l-0.08,0.08c-0.2-0.22-0.39-0.43-0.57-0.63
			c-0.18-0.18-0.39-0.41-0.59-0.59c-0.18-0.2-0.41-0.43-0.61-0.61c-0.18-0.2-0.41-0.41-0.59-0.61c-0.02-0.04-0.02-0.1-0.04-0.14
			c-4.14-3.79-7-8.49-9.26-13.51c-3.45-7.63-4.86-15.67-4.2-24.3c0.69,0.57,1.2,1.14,1.86,1.47c0.57,0.29,1.29,0.33,2.2,0.55
			c-0.27,2.16-0.43,4.55-0.84,6.88c-0.39,2.08,0.14,3.88,1.67,5.12c3.37,2.71,4.02,6.49,4.37,10.36c0.16,2.08,0.16,4.14,1.26,6.02
			c0.2,0.33,0.35,0.75,0.35,1.14c-0.04,2.1,0.84,3.79,2.22,5.35c0.2,0.24,0.27,0.59,0.39,0.94c0.02,0.02,0.06,0.08,0.1,0.1
			c0.18,0.22,0.41,0.41,0.59,0.61c0.22,0.2,0.43,0.41,0.63,0.61c0.2,0.2,0.41,0.39,0.61,0.59c0.18,0.2,0.39,0.41,0.57,0.59
			c0.59-0.45,1.16-0.92,1.96-1.51c-0.9-0.94-1.65-1.71-2.47-2.61c-0.12-1.63-0.24-3.39-0.39-5.33c2.39-1.1,2.59-3.77,3.47-5.92
			c0.8-1.86,1.73-3.31,3.43-4.3c1.59-0.94,2.57-2.08,2-4.14c-0.31-1.12,0.35-2.02,1.12-2.9c1.86-2.16,1.71-3.08-0.45-4.77
			c-0.61-0.49-1.14-1.06-1.75-1.67c-0.63,0.24-1.29,0.47-1.96,0.71c-0.22-0.57-0.41-1.1-0.63-1.73h-2.26
			c-0.24-0.27-0.43-0.47-0.59-0.69c-1.39-1.94-2.71-3.86-4.12-5.73c-0.27-0.33-0.88-0.43-1.33-0.55c-1.16-0.29-2.33-0.51-3.82-0.86
			c-0.8,0.65-1.75,1.47-2.71,2.26c-1.04-0.2-2.2-0.43-3.65-0.71c-0.06-0.84-0.14-1.88-0.2-3.02c-0.33-0.22-0.71-0.45-1.18-0.78
			c0.55-2.31,1.1-4.59,1.73-7.24c0.96,0.78,1.59,1.29,2.31,1.86c0.16-0.16,0.45-0.31,0.59-0.51c0.16-0.24,0.27-0.55,0.29-0.84
			c0.47-5.14,4.69-7.06,8.2-9.55c1.53-1.06,3.02-0.24,4.55,1.02c0.16-0.96,0.27-1.55,0.41-2.29c-1.33-0.43-2.53-0.82-3.63-1.16
			c1.37-0.8,1.39-0.84,3.12-0.16c1.12,0.43,2.2,1.02,3.53-0.24c-0.69-1.59-1.43-3.28-2.06-4.75c-1.18-0.49-2.24-0.94-3.26-1.33
			c-0.86-0.33-1.71-0.69-2.59-1.02L106.04,80c-0.22,0.2-0.41,0.41-0.63,0.59c-0.41,0.59-0.78,1.18-1.18,1.78
			c-0.18,0.22-0.39,0.41-0.59,0.61c-0.06,0.14-0.14,0.29-0.2,0.41c0.06-0.14,0.12-0.29,0.18-0.45c0.22-0.2,0.41-0.39,0.61-0.57
			c0.39-0.61,0.78-1.2,1.14-1.84c0.2-0.22,0.41-0.41,0.59-0.61c0.02,0.02,0.08,0.02,0.1,0.04c0.51-0.59,1.02-1.14,1.59-1.78
			c1.02,0.45,1.9,0.86,2.86,1.31c1.33-0.73,2.67-1.47,4.22-2.33c-0.94-0.98-1.71-1.82-2.63-2.8c1.29-0.84,2.43-1.59,3.45-2.24
			c3.49,1.47,3.51,1.57,1.41,6.63c0.63,0.78,1.37,1.67,2.26,2.75c1.51-0.94,2.9-1.69,4.18-2.57c2.04-1.41,4.06-2.82,6.61-3.24
			c0.65-0.12,1.37-0.47,1.82-0.96c1.12-1.24,2.08-2.59,3.26-4.12c-2.53-0.57-4.94-0.24-7.35-0.29c-2.45-0.08-4.9-0.55-7.2-0.82
			c13.79-7.79,35.64-6.88,49.64,3.82c-0.98,1.12-0.98,1.12-2.8,1.45c-0.02,0.29-0.06,0.57-0.1,0.88c-0.31,0.04-0.59,0.06-0.92,0.06
			c-1.96-0.06-3.88,0-5.79,0.78c-1.78,0.69-3.86,0.49-5.63,1.53c-0.31,0.2-1.1-0.39-1.75-0.63c0.61-1.24,2.31,0.39,2.35-1.59
			c-0.24-0.24-0.59-0.73-1.06-0.96c-2.04-0.96-4.24-1.16-6.43-0.86c-0.96,0.14-2.14,0.45-2.67,1.12c-1.04,1.31-2.45,1.94-3.82,2.75
			c-0.39,0.24-0.61,0.65-1.14,1.26c1.24,0.45,2.22,0.84,3.31,1.26c0.31,0.67,0.65,1.47,1.16,2.59c1-0.9,1.86-1.63,2.73-2.43v-2.61
			c1.02,1.26,1.71,2.1,2.59,3.2c-1.1,0.67-2.02,1.43-3.08,1.86c-2.02,0.82-2.22,0.69-3.73-1.06c-0.51-0.63-0.51-0.63-2.06-0.43
			c0.08,0.39,0.14,0.73,0.24,1.1c0.1,0.35,0.22,0.71,0.33,1.14c-1.73,0.88-3.37,1.71-5.02,2.53c0.18,0.55,0.35,1,0.59,1.59
			c-0.73,0.16-1.41,0.33-2.04,0.43c-2.53,0.41-3,1.26-2.04,3.65c0.08,0.27,0.33,0.47,0.61,0.88c0.86,0.08,1.84,0.18,2.86,0.29
			c1.33-2.14,1.63-5.33,5.26-4.73c1.88,0.29,3.35,1.41,4.35,3.67c0.51-0.47,1-0.94,1.57-1.45c-0.94-0.75-1.71-1.43-2.65-2.22
			c2.33-0.33,3.1,0.35,4.18,3.65c1.1-0.43,2.16-0.86,3.47-1.39c0.14,1.2,0.27,2.04,0.39,3.2c1.37-0.18,2.59-0.33,4.04-0.51
			c0.04,0.45,0.33,1.06,0.14,1.47c-0.47,1.02-1.35,1.69-2.57,1.73c-2.04,0.12-3.96-0.29-5.61-1.41c-2.18,1.2-3.31,0.75-6.53-2.53
			c-2.37,0.35-4.79,0.65-7.2,1.12c-0.63,0.12-1.26,0.57-1.78,1c-3.84,3.1-5.65,7.43-6.9,11.94c-0.88,3.28,1.18,5.61,4.59,6.32
			c2.02,0.41,3.96,0.02,5.92-0.1c4.28-0.29,6.32,1.63,6.73,6c0.29,3.14,0.84,6.28,1.37,9.41c0.14,0.88,0.59,1.71,1,2.49
			c1.2,2.29,2.47,4.55,3.75,6.77c0.59,1.04,1.24,2.08,3.06,2.04c0.29-0.47,0.96-1.1,1.02-1.75c0.43-4.45,2.77-7.77,5.84-10.77
			c0.33-0.35,0.67-0.73,1.06-1.18c-0.12-0.55-0.16-1.16-0.43-1.69c-0.71-1.51-0.41-2.98,0.35-4.28c1.59-2.86,3.31-5.63,5.08-8.41
			c0.51-0.8,1.02-1.47,0.47-2.65c-1.57,0.24-3.18,0.47-5.04,0.75c-2.14-2.92-2.96-6.47-4.24-9.81c-0.02,0-0.06-0.04-0.08-0.06
			c-0.08-0.1-0.14-0.18-0.16-0.22c0.02,0,0.12,0.1,0.22,0.16c0.02,0.02,0.02,0.06,0.04,0.1c2.26,1.26,3.47,3.35,4.57,5.57
			c1.55,3.1,3.65,3.49,6,1.04c0.9-0.92,1.63-1.98,2.53-3.1c-0.55-0.82-1.02-1.53-1.55-2.26c-0.94-0.06-1.82-0.12-2.8-0.18
			c-0.57-1.1-2-1.59-2.1-3.51c0.88,0.41,1.71,0.53,2.16,1c1.45,1.57,3.35,2.04,5.28,2.57c1.53,0.41,3.04,0.86,4.69,1.33
			c0.45,1.55,1.2,3.08,1.22,4.59c0.06,2.67,1.47,4.14,3.65,5.22c0.94-6.63,1.31-7.37,4.61-8.69c0.51,0.75,0.96,1.61,1.57,2.33
			c0.57,0.67,1.31,1.2,2.1,1.9c-0.73,2.37-0.08,4.35,1.53,6.22c0.55,0.63,0.61,1.86,0.59,2.8c-0.29,9.71-3.45,18.48-9.1,26.34
			C174.94,153.27,164.96,160.06,152.48,162.59z"/>
		
			<radialGradient id="SVGID_00000049183032395778564860000002962897963908674959_" cx="141.6196" cy="348.3394" r="84.1295" gradientTransform="matrix(1 0 0 -1 0 412.9275)" gradientUnits="userSpaceOnUse">
			<stop  offset="0" style="stop-color:#FFC116"/>
			<stop  offset="1" style="stop-color:#F48220"/>
		</radialGradient>
		<path style="fill:url(#SVGID_00000049183032395778564860000002962897963908674959_);" d="M162.58,133.01
			c-0.37-0.24-0.71-0.41-0.98-0.65c-0.29-0.27-0.49-0.59-0.78-0.96c0.53-2.73,2.43-4.65,3.96-7.18c0.41,0.67,0.92,1.14,0.88,1.55
			C165.41,128.44,164.52,130.89,162.58,133.01z"/>
		
			<radialGradient id="SVGID_00000169525333480750377680000007809189243320994189_" cx="141.6196" cy="348.3394" r="84.1295" gradientTransform="matrix(1 0 0 -1 0 412.9275)" gradientUnits="userSpaceOnUse">
			<stop  offset="0" style="stop-color:#FFC116"/>
			<stop  offset="1" style="stop-color:#F48220"/>
		</radialGradient>
		<path style="fill:url(#SVGID_00000169525333480750377680000007809189243320994189_);" d="M99.27,104.55
			c-1.61-0.29-3.22-0.59-4.86-0.88C95.92,102.1,97.35,102.2,99.27,104.55z"/>
		
			<radialGradient id="SVGID_00000148658700322855312980000009974736084423120018_" cx="141.6196" cy="348.3394" r="84.1295" gradientTransform="matrix(1 0 0 -1 0 412.9275)" gradientUnits="userSpaceOnUse">
			<stop  offset="0" style="stop-color:#FFC116"/>
			<stop  offset="1" style="stop-color:#F48220"/>
		</radialGradient>
		<path style="fill:url(#SVGID_00000148658700322855312980000009974736084423120018_);" d="M100.02,105.44
			c0.51-1.29,1.33-1.2,2.37-0.75C101.84,105.93,101.04,105.93,100.02,105.44z"/>
	</g>
	<path class="st4" d="M54.16,135.46c0.29,15.79,5.39,29.3,13.32,40.6c1.35,1.92,2.77,3.82,4.3,5.59c0.94,1.14,1.92,2.26,2.94,3.35
		c0.27,0.29,0.55,0.57,0.82,0.86c3.86,4.04,8.1,7.73,12.57,11.02c0.29,0.22,0.59,0.45,0.88,0.65c0.29,0.2,0.57,0.39,0.84,0.59
		c0.35,0.24,0.73,0.49,1.1,0.75c4.82,3.37,9.9,6.32,15.06,8.83c1.06,0.53,2.12,1.02,3.18,1.51c20.42,9.24,39.91,10.63,39.91,10.63
		c7.24,0,13.53-0.41,19.4-1.14c1.37-0.16,9.22-1.16,17.34-3.2c16.59-4.18,30.58-11.77,38.95-16.91c-3.33,4.37-7.92,10-13.81,16.14
		c-6.41,6.65-19.48,19.2-38.77,30.56c-17,10-47.03,27.69-86.02,24.69c-15-1.16-26.97-5.06-34.66-8.12
		c8.71,1.73,20.38,3.08,34.05,1.96c9.12-0.73,17.08-2.37,23.57-4.2c-8.57,1.02-25.79,1.86-45.17-5.9
		c-25.05-10.06-38.38-28.38-43.03-35.52c17.04,16.14,33.56,23.32,43.68,26.75c54.05,18.12,104.89-11.12,111.09-14.79
		c1.04-0.61,2.29-1.37,3.71-2.31c-13.63,6.59-28.95,10.28-45.11,10.28c-57.54,0-104.18-46.64-104.18-104.18
		c0-61.17,54.7-102.16,104.18-104.18c35.6-1.45,72.55,17.12,90.14,45.19c11.49,18.32,15.16,41.25,15.79,45.54
		c2.04,13.67,1.55,25.34,0.67,33.56c-1.1-11.1-5.96-46.4-35.05-74.92c-8.71-8.53-31.81-31.2-64.27-30.99
		C99.94,48.4,53.28,86.18,54.16,135.46z"/>
	<path class="st4" d="M228.5,182.87c-5.35,5.47-11.38,10.2-17.91,14.02c-0.06,0.04-0.1,0.06-0.16,0.1
		c-0.67,0.41-1.35,0.78-2.04,1.14c-8.12,4.49-16.87,7.59-26.05,9.32L106,207.72c-5.16-2.51-10.24-5.47-15.06-8.83
		c-0.37-0.24-0.73-0.49-1.1-0.75c-0.29-0.2-0.57-0.39-0.84-0.59c-0.31-0.22-0.59-0.43-0.88-0.65c-4.49-3.31-8.71-7-12.57-11.02
		c-0.27-0.29-0.55-0.57-0.82-0.86c0.08-2.12-0.35-4.33,0.51-6.41c0.27-0.61-0.35-1.16-0.2-1.86c0.02-0.1,0.04-0.2,0.1-0.31
		c0.29-0.57,0.08-1.39,0.08-2.1v-12.47c0.71-1.04,1.37-2.02,2.02-3c0.08,0.29,0.06,0.9,0.35,1.16c1.35,1.31,1.45,2.9,1.43,4.61
		c-0.06,3.39,0,6.77,0,10.16c0,1.06,0.08,2.14-0.04,3.2c-0.1,0.92,0.35,1.78,0.16,2.69c-0.1,0.45-0.12,0.86-0.08,1.31
		c0.02,0.55,0.16,1.16,0.41,1.73c0.31,0.88,0.06,1.94,0.06,3.2c0.67-0.16,1.22-0.18,1.71-0.41c0.45-0.18,0.88-0.41,1.33-0.61
		c0.57-0.29,1.12-0.55,1.65-0.82c0.57-1.59-1.49-1.92-1.2-3.02c-0.73-0.49-1.69,0.33-1.73-0.78c1.49-1.33,3.84-1.06,5.26-2.82
		c-0.71-1.35-1.78-2.22-3.86-2.61c1.9-1.12,3.53-1.24,5.39-2.29c0.31-0.55,0.94-1.59,1.67-2.88c0.71,1.06,1.37,2.06,2.06,3.08
		c1.39,0.55,2.82,1.1,4.24,1.63c0.2,1.14-0.69,0.71-1.2,0.86c-0.47,0.71-0.96,1.43-1.47,2.18c1.2,1.69,3.47,1.55,4.86,2.84
		c-1.47,0.92-2.84,1.78-3.31,3.69c1.82,0.8,3.55,1.53,5.26,2.29c0.12-0.41,0.22-0.92,0.45-1.39c0.08-0.22,0.39-0.35,0.57-0.53
		c0.59,1.71,1.16,3.43,1.75,5.24h0.84c0.24-0.61,0.8-1.26,0.71-1.86c-0.2-1.88,1.51-2.65,2.14-4.06c0.16-0.39,0.82-0.67,1.31-0.75
		c4.37-0.96,8.04-3.41,12.06-5.18c0.39-0.16,0.8-0.27,1.2-0.39c-0.16,0.35-0.35,0.71-0.53,1.06c-0.43,0.04-0.98-0.18-1.06,0.53
		c-0.31,0.06-0.63,0.1-0.94,0.18c0,0.1,0.04,0.24,0.04,0.35h0.92c-0.94,0.53-1.82,1.2-2.82,1.55c-2.92,1.1-5.86,2.02-8.83,3.06
		c1.33,1.55,1.67,3.51,2.2,5.45H112c0.59-1.2-0.53-2.84,1.16-3.65h6.16c1.24-1,2.47-2.16,4.1-2.65c0,0,0,0.02,0.02,0.02
		c0,0,0,0,0-0.02h-0.06c0.24-0.82,0.78-1.14,1.59-1.06l0.55,0.53c-0.12,0.29-0.27,0.59-0.43,0.92h4.08
		c0.04-0.65,0.08-1.16,0.12-1.69c1.88-0.69,2.31-2.31,2.63-4.04c-0.78,0.69-1.53,1.43-2.37,2.08c-0.41,0.29-0.92,0.41-1.39,0.59
		v-0.53c0.18-0.16,0.35-0.35,0.55-0.53c0.16-0.18,0.35-0.35,0.53-0.55c0.16-0.16,0.35-0.35,0.53-0.53c0.18-0.18,0.35-0.35,0.55-0.55
		c0.16-0.16,0.35-0.35,0.53-0.53c0.18-0.18,0.35-0.35,0.55-0.55c0.16-0.16,0.35-0.35,0.53-0.53h0.55c0.06,0.12,0.1,0.27,0.16,0.41
		c0.1-0.12,0.24-0.27,0.35-0.41l2.67-2.67c1.45-0.63,2.88-1.26,4.04-1.75c0.29-1.65,0.35-3.06,0.86-4.28
		c0.22-0.53,0.31-1.04,0.35-1.55c0.06-0.31,0.08-0.61,0.1-0.96c0-0.08,0-0.14,0.02-0.24c0-0.06,0.02-0.14,0.02-0.2
		c0.02-0.14,0.04-0.29,0.06-0.41c0.02-0.14,0.02-0.24,0.02-0.27c0.02-0.12,0.1-0.49,0.33-1.26c0.14-0.49,0.33-1.14,0.61-1.98
		c-0.12-0.14-0.75-0.78-0.78-1.75c-0.02-1.37,1.14-2.12,1.22-2.18c0.31-1.26,0.61-2.49,0.94-3.75c0.12,0.35,0.22,0.71,0.33,1.1
		c0.27,0.96,0.49,1.86,0.65,2.73c0.2,0.14,0.78,0.63,0.98,1.45c0.33,1.33-0.51,2.37-0.61,2.47c0.35,0.67,0.59,1.26,0.78,1.75
		c0.41,1.06,0.49,1.71,0.47,2.16v0.02c0,0.16-0.06,0.73,0.08,1.49c0.02,0.1,0.08,0.49,0.24,1c0.14,0.47,0.41,1.12,0.88,1.84
		c-0.18,1.31-0.27,2.1-0.35,2.88c1.75,0.65,3.28,1.2,4.82,1.75c0.16,0.16,0.35,0.35,0.53,0.53c0.16,0.18,0.35,0.35,0.53,0.55
		c0.12,0.12,0.22,0.27,0.35,0.41c0.04-0.14,0.12-0.27,0.18-0.41h0.53l1.06,1.04v1.06h-0.53c0.16,0.18,0.35,0.35,0.53,0.55
		c0.59,1.41,1.16,2.8,1.69,4.14c0.57,0.1,0.98,0.16,1.35,0.24c0.14,0.75,0.24,1.37,0.39,2.02c1.43-0.1,2.71,0.18,3.88-0.12
		c-0.55-0.57-0.98-1-1.45-1.47c0.14-0.06,0.29-0.14,0.43-0.18c-0.12-0.12-0.27-0.24-0.43-0.35c-0.18-0.16-0.35-0.35-0.53-0.53
		c0.02-0.18,0.02-0.35,0.02-0.55c1.16-0.06,1.67,0.73,2.12,1.61c1.26,0.69,2.82,1.12,3.63,2.14c1.04,1.26,2.14,1.59,3.59,1.59
		c1.65-0.02,3.33,0,5.14,0v3.63h2.49c-0.16-0.41-0.31-0.69-0.43-0.92c0.69-1.71,1.45-3.28,2.61-4.63c-0.78-0.27-1.49-0.61-2.22-0.73
		l3.26,0.35c0.08,0.12,0.43,0.61,0.69,1.02c2.18-1.16,4.26-2.26,6.69-3.53c-1.41-1.24-2.63-2.35-3.98-3.55
		c1.49-1.14,3.51-1.45,4.9-2.47c0.55-1.02,1.1-1.9,1.45-2.84c0.33-0.86,0.47-1.82,0.71-2.73c0.73,0.75,0.02,1.73,0.39,2.53
		c0.63,0.92,1.22,1.84,2.16,3.18c1.16,0.59,2.86,1.43,4.59,2.29c-1.26,1.14-2.49,2.24-3.96,3.59c1.24,0.65,2.18,1.16,3.24,1.69
		c1.71-0.84,3.41-1.67,5.14-2.53c-0.65-2.08-1.88-3.35-4.1-3.51c-0.49-0.02-0.94-0.57-1.53-0.98c2.45-0.82,4.61-1.49,6.77-2.22
		c0.82-0.27,0.92-0.65,0.82-2.67c-0.96-0.43-2.02-0.92-3.49-1.57c1.29-0.43,2.16-0.96,3.08-0.98c1.73-0.04,2.57-0.84,2.77-2.47
		c0.02-0.08,0.29-0.16,0.63-0.31c0.1,0.27,0.31,0.53,0.33,0.8c0.2,1.63,0.2,1.59,1.88,1.92c1.16,0.22,2.29,0.55,3.53,0.82
		c-0.14,0.29-0.2,0.67-0.35,0.71c-2.41,0.67-2.41,0.65-3.49,3.16c2.41,1.06,4.9,1.86,7.51,2.67v1.06c-1.82-0.1-3.31,0.67-4.67,1.94
		v1.84c1.86,1.04,3.65,2.2,5.77,2.75l0.02,0.02c0.29,0.94,1.04,0.35,1.61,0.53c0.27,0.86,0.84,0.55,1.39,0.35L228.5,182.87z"/>
	<path class="st4" d="M10.86,155c9.65,24.38,23.97,45.7,44.68,61.43c20.75,15.69,45.11,23.73,71.19,26.5
		c-6.51,1.82-13.34,2.57-20.18,2.61C57.01,246.06,12.07,205.03,10.86,155L10.86,155z"/>
	<g>
		<path class="st4" d="M242.6,189.56c0.35,0.31,0.69,0.61,1.04,0.94c0.96-0.37-0.51-1.67,0.82-1.98c0.18,0.27,0.41,0.57,0.69,0.96
			c0.14-0.31,0.33-0.55,0.37-0.82c0.06-0.35-0.02-0.69,0-1.04c0-0.08,0.18-0.16,0.33-0.27c0.31,0.22,0.63,0.47,0.94,0.71
			c0.67-0.55-0.53-1.49,0.69-1.88c0.2,0.18,0.51,0.43,0.84,0.71c0.1-0.16,0.27-0.35,0.24-0.45c-0.14-0.55-0.39-1.1,0.41-1.43
			c0.29,0.22,0.57,0.47,1.14,0.94c-0.14-1.08-0.53-1.94,0.53-2.63c-2.94-1.02-5.67-1.96-8.53-2.96c0.47-0.67,0.86-1.22,1.24-1.75
			c0.08-0.06,0.16-0.1,0.14-0.1c0,0-0.06,0.06-0.1,0.14c-0.84,0.39-1.69,0.78-2.61,1.2c-2.71-0.88-5.45-1.75-8.18-2.63
			c-4.35-1.41-8.71-2.82-13.06-4.2c-1.26-0.41-2.45-0.9-3.37-1.94c0.9-0.41,2.06-0.49,3.41-0.31c0.88,0.12,1.73,0.2,2.61,0.27
			c3.75,0.24,7.51,0.49,11.28,0.71c0.12,0,0.24,0,0.39,0.02c3.45,0.16,6.92,0.29,10.36,0.47c1.75,0.1,3.49,0.29,5.16,0.41
			c0.63-0.59,1.1-1.08,1.65-1.51c1.47-1.16,3.1-1.69,4.9-0.82c0.49,0.24,0.94,0.63,1.29,1.06c1.39,1.73,0.86,3.35-1.35,4.16
			c-2.35-0.98-2.71-1.92-1.65-4.28c-0.84-0.31-1.37,0.2-1.63,0.8c-0.33,0.71-0.41,1.53-0.55,2.1c0.86,1.82,1.8,3,3.77,3.02
			c1.84,0,2.67-1.14,3.24-2.57c0.88,0,1.65,0,2.55,0c-1.45,3-3.26,5.57-5.26,7.98c-1.37,1.63-2.82,3.18-4.24,4.77
			c-0.12,0.12-0.24,0.27-0.37,0.39c-0.24,0.12-0.51,0.24-0.75,0.37c-0.06,0.06-0.12,0.12-0.14,0.12c0-0.02,0.06-0.08,0.1-0.16
			c0.24-0.12,0.51-0.24,0.75-0.37c0.12-0.12,0.27-0.24,0.39-0.37c1.65-0.55,2.92-1.71,4.14-2.86c4.26-4.02,8.41-8.14,12.63-12.2
			c3.45-3.31,7.1-6.41,11.3-8.73c2.43-1.35,4.98-2.37,7.63-3.16c-0.67-1.29-1.37-1.67-2.86-1.26c-1.51,0.41-2.98,1-4.43,1.55
			c-0.69,0.27-1.35,0.63-2.14,1c-0.1-0.39-0.16-0.67-0.27-1.08c1.39-0.65,2.71-1.29,4.06-1.94c-2.06-0.14-3.96,0.37-5.77,1.22
			c-2.29,1.08-4.24,2.67-6.18,4.28c-3.24,2.69-6.47,5.41-9.71,8.1c-0.37,0.31-0.82,0.53-1.2,0.8c-0.65-0.63-0.43-1.1,0.04-1.51
			c1.14-1,2.26-1.98,3.43-2.96c2.65-2.2,5.33-4.41,8-6.61c2.75-2.26,5.73-4.04,9.3-4.71c2.2-0.43,4.39-0.24,6.53,0.31
			c0.63,0.16,1.2,0.65,1.73,1.08c0.82,0.67,0.98,1.53,0.67,2.55c-0.65,2.12-1.96,3.84-3.49,5.3c-2.31,2.22-4.75,4.3-7.2,6.37
			c-3.67,3.06-7.49,5.94-11.1,9.06c-7.61,6.59-16.16,11.47-25.77,14.45c-2.98,0.92-6.06,1.55-9.12,2.2
			c-0.84,0.18-1.73,0.02-2.92,0.02c3.18-2.57,6.18-4.96,9.12-7.41c3-2.49,5.94-5.06,8.98-7.69c0.33,0.06,0.73,0.12,1.2,0.2
			c-0.08,0.29-0.08,0.51-0.2,0.59c-1.41,1.24-2.86,2.47-4.26,3.71c-0.55,0.49-1.06,1.04-1.57,1.55c-0.12,0.12-0.27,0.27-0.39,0.39
			c-0.82,0.45-0.92,1.02-0.29,1.8c0.9-0.55,0.06-1.26,0.27-1.82C242.35,189.81,242.48,189.69,242.6,189.56z M254.72,179.77
			c-1.47,0.27-2.92,0.51-4.39,0.78c1.59,0.35,3.08,0.24,4.37-0.8c0.18-0.04,0.37-0.08,0.57-0.12c-0.04-0.08-0.08-0.14-0.12-0.22
			C255,179.53,254.86,179.65,254.72,179.77z"/>
		<path class="st4" d="M274.22,177.14c0.55,0.53,1.04,1,1.51,1.43c0.82-0.29,1.57-0.61,2.35-0.8c1.86-0.43,3.65,0.33,4.55,1.84
			c0.67,1.14,0.84,3.35-0.45,4.75c-1.84,2-4.1,3.06-6.75,3.33c-1.06,0.1-2.14,0.02-3.18,0.02c-2-1.12-3.94-2.22-6.14-3.47
			C268.92,181.79,271.55,179.49,274.22,177.14z M278.42,179c-1.37,0.45-1.51,1.41-1.37,2.47c0.14,1.1,1.12,2.29,2.08,2.41
			c0.9,0.12,1.92,0.35,2.39-0.88C278.14,182.44,278.3,181.18,278.42,179z"/>
		<path class="st4" d="M236.31,191.58c-1.04-0.06-1.86-0.1-2.86-0.16c-1.33-3.43-2.67-6.83-4.04-10.36c0.65-0.35,1.26-0.65,2-1.02
			c2.75,2.73,5.51,5.47,8.3,8.24C238.88,189.75,237.29,190.32,236.31,191.58z"/>
		<path class="st4" d="M218.91,193.26c1.22-0.73,2.02-1.22,2.92-1.75c4.14,0.37,8.37,0.75,12.98,1.16c-1.57,1.26-2.9,2.33-4.37,3.49
			C226.7,195.46,223.03,194.28,218.91,193.26z"/>
		<path class="st4" d="M281.69,186.01c1.57,2.26,3.02,4.37,4.55,6.55c-0.33,0.37-0.59,0.69-0.96,1.1
			c-3.71-1.63-7.43-3.24-11.12-4.86C276.81,188.36,279.38,187.89,281.69,186.01z"/>
		<path class="st4" d="M272.79,162.63c0.39-0.2,0.71-0.37,1.08-0.57c0.14,0.84,0.27,1.55,0.43,2.47c-0.33,0.29-0.71,0.63-1.18,1.04
			C272.61,164.49,272.88,163.57,272.79,162.63z"/>
		<path class="st4" d="M270.43,166.45c-0.63-0.96-0.63-0.96,0.18-1.86C271.22,165.33,271.16,165.9,270.43,166.45z"/>
		<path class="st4" d="M269.33,167.47c-0.22,0.06-0.49,0.16-0.75,0.24c-0.41-0.59-0.45-1.08,0.14-1.61
			C269.33,166.35,269.53,166.75,269.33,167.47z"/>
		<path class="st4" d="M267.41,167.37c0.16,0.37,0.33,0.69,0.51,1.08c-0.2,0.24-0.41,0.47-0.59,0.67c-0.18-0.08-0.35-0.1-0.39-0.18
			C266.63,168.32,266.61,167.77,267.41,167.37z"/>
		<path class="st4" d="M264.16,169.75c0.55,0.69,0.92,1.18-0.02,1.75C263.65,171,263.57,170.53,264.16,169.75z"/>
		<path class="st4" d="M265.73,168.49c0.2,0.49,0.35,0.69,0.35,0.9c0,0.29-0.12,0.57-0.22,1.02
			C265.12,169.86,265.08,169.39,265.73,168.49z"/>
		<path class="st4" d="M262.61,172.71c-0.51-0.67-0.51-1.12,0.18-1.57C263.18,171.67,263.51,172.14,262.61,172.71z"/>
		<path class="st4" d="M261.47,172.61c-0.04,0.22-0.1,0.47-0.14,0.69c-0.16-0.06-0.31-0.12-0.47-0.16c0.1-0.2,0.22-0.43,0.33-0.63
			C261.27,172.53,261.37,172.57,261.47,172.61z"/>
	</g>
</g>
</svg>
